<?xml version="1.0" encoding="UTF-8"?>
<!DOCTYPE svg PUBLIC "-//W3C//DTD SVG 1.1//EN" "http://www.w3.org/Graphics/SVG/1.1/DTD/svg11.dtd">
<!-- Creator: CorelDRAW -->
<svg xmlns="http://www.w3.org/2000/svg" xml:space="preserve" width="7mm" height="8mm" version="1.1" style="shape-rendering:geometricPrecision; text-rendering:geometricPrecision; image-rendering:optimizeQuality; fill-rule:evenodd; clip-rule:evenodd"
viewBox="0 0 700 800"
 xmlns:xlink="http://www.w3.org/1999/xlink"
 xmlns:xodm="http://www.corel.com/coreldraw/odm/2003">
 <defs>
  <style type="text/css">
   <![CDATA[
    .fil7 {fill:#FEFEFE;fill-rule:nonzero}
    .fil2 {fill:#F9A45F;fill-rule:nonzero}
    .fil3 {fill:#F8C58D;fill-rule:nonzero}
    .fil4 {fill:#DF6E4A;fill-rule:nonzero}
    .fil0 {fill:#A65B5B;fill-rule:nonzero}
    .fil1 {fill:#904E54;fill-rule:nonzero}
    .fil9 {fill:#5C3340;fill-rule:nonzero}
    .fil6 {fill:#624D5E;fill-rule:nonzero}
    .fil5 {fill:#403641;fill-rule:nonzero}
    .fil8 {fill:#313949;fill-rule:nonzero}
   ]]>
  </style>
 </defs>
 <g id="Camada_x0020_1">
  <metadata id="CorelCorpID_0Corel-Layer"/>
  <g id="_1920790718512">
   <path class="fil0" d="M640.4 657.49c-6.84,-30.62 -30.76,-54.54 -61.42,-61.35l-34.07 -7.58 -0.18 0.56 -94.58 -21.62c-6.32,-1.45 -11.68,-5.29 -15.07,-10.51 -1.79,-2.79 -3.06,-5.93 -3.63,-9.35l-3.03 -18.24 -14.82 -88.41 -130.99 5.51 -5.32 48.36 -5.65 51.19c-0.6,5.64 -3.14,10.72 -6.95,14.57 -3.21,3.24 -7.3,5.61 -11.96,6.63l-105.83 24.17c-1.13,0.24 -2.22,0.6 -3.28,1.02l-16.72 3.7c-30.66,6.81 -54.58,30.73 -61.42,61.35l-29.43 131.87 633.77 0 -29.42 -131.87z"/>
   <path class="fil1" d="M428.38 529.4c-78.77,16.79 -128.09,-13.9 -151.13,-34.57l5.33 -48.37 130.99 -5.5 14.81 88.44z"/>
   <path class="fil2" d="M669.82 789.4l-633.77 0 29.43 -131.91c6.88,-30.65 30.79,-54.54 61.42,-61.35l16.75 -3.74c1.06,-0.42 2.08,-0.77 3.21,-1.02l105.84 -24.16c4.65,-1.06 8.75,-3.39 11.96,-6.64l86.07 54.61 84.32 -58.17c3.39,5.26 8.75,9.07 15.06,10.51l94.62 21.63 0.18 -0.57 34.07 7.59c30.66,6.84 54.58,30.73 61.42,61.35l29.42 131.87z"/>
   <path class="fil3" d="M351.58 615.97l-78.81 -74.08c-3.99,-3.74 -9.84,-4.73 -14.85,-2.47l-16.72 7.62c-17.04,7.76 -27.7,25.04 -26.96,43.74l1.24 31.86c0,0 55,-31.65 136.1,-6.67z"/>
   <path class="fil3" d="M350.31 615.97l78.81 -74.08c3.99,-3.74 9.85,-4.73 14.85,-2.47l16.73 7.62c17.04,7.76 27.69,25.04 26.95,43.74l-1.24 31.86c0,0 -54.99,-31.65 -136.1,-6.67z"/>
   <polygon class="fil4" points="406.79,744.17 518.8,744.17 518.8,733.34 406.79,733.34 "/>
   <path class="fil1" d="M151.85 295.2c6.98,-17.69 33.82,-23.67 59.96,-13.37 26.13,10.31 41.66,33.01 34.68,50.69 -6.98,17.69 -33.82,23.68 -59.95,13.37 -26.13,-10.31 -41.66,-33 -34.69,-50.69z"/>
   <path class="fil1" d="M489.64 281.84c26.14,-10.31 52.98,-4.33 59.95,13.36 6.98,17.69 -8.55,40.38 -34.68,50.69 -26.14,10.31 -52.98,4.33 -59.96,-13.36 -6.97,-17.69 8.56,-40.38 34.69,-50.69z"/>
   <path class="fil0" d="M350.77 98.62c81.81,0 148.13,89.11 148.13,199.04 0,109.93 -66.32,199.04 -148.13,199.04 -81.81,0 -148.13,-89.11 -148.13,-199.04 0,-109.93 66.32,-199.04 148.13,-199.04z"/>
   <path class="fil5" d="M507.3 192.46c-0.39,68.09 -11.61,146.69 -11.61,146.69 0,0 -8.82,-70.07 -17.32,-107.88 -8.5,-37.79 -22.51,-60.43 -22.51,-60.43l-218.68 0.63c0,0 -16.3,40.5 -20.61,72.85 -4.34,32.38 -10.69,98.11 -10.69,98.11 0,0 -20.42,-167.85 -15.98,-195.27 3.14,-19.36 23.46,-48.61 43.57,-66.6 8.4,-7.48 16.69,-13.02 23.74,-15.1 23.92,-7.05 181.3,-10.62 198.76,3.46 17.46,14.07 47.59,60.04 49.28,75.74 1.63,14.36 2.19,30.73 2.05,47.8z"/>
   <path class="fil6" d="M507.3 192.46c-8.29,-46.46 -31.72,-75.42 -65.72,-101.32 -32.6,-24.83 -164.93,-23.39 -208.07,-10.54 8.39,-7.48 16.68,-13.02 23.74,-15.1 23.92,-7.06 181.29,-10.62 198.75,3.45 17.47,14.08 47.6,60.05 49.29,75.75 1.59,14.32 2.15,30.69 2.01,47.76z"/>
   <path class="fil5" d="M251.39 451.79c0,0 17.78,-79.59 38.56,-84.95 20.81,-5.36 108.83,-6.35 124.64,2.68 10.76,6.14 33.79,80.64 32.74,82.97 -1.03,2.33 -90.46,118.92 -195.94,-0.7z"/>
   <path class="fil0" d="M298.81 383.95c23.28,-7.2 75.98,-5.29 98.77,-1.24 1.77,0.32 3.39,1.06 4.45,2.26 18.1,19.9 25.05,64.35 18.52,70.91 -22.08,22.08 -46.04,11.78 -52.67,-14.25 -0.74,-2.97 -3.99,-5.12 -7.69,-5.05l-26.28 0.46c-3.57,0.07 -6.67,2.12 -7.34,4.98 -7.94,32.45 -28.19,36.51 -47.38,14.28 -2.82,-3.28 -7.23,-42.36 16.3,-70.27 0.78,-0.92 1.94,-1.66 3.32,-2.08z"/>
   <path class="fil7" d="M300.64 395.66l99.66 0.28c0,0 4.13,16.16 -8.71,21.91 -16.72,7.48 -68.27,7.09 -79.52,0.39 -10.69,-6.39 -11.43,-22.58 -11.43,-22.58z"/>
   <path class="fil5" d="M233.51 252.68c7.09,-13.44 19.79,-23.81 34.39,-28.08 14.61,-4.27 30.87,-2.33 42.76,5.54 -2.29,5.61 -4.62,11.22 -6.92,16.83 -24.16,-7.27 -51.54,-2.61 -70.23,5.71z"/>
   <path class="fil5" d="M386.22 249.15c-1.58,-5.64 -3.17,-11.25 -2.75,-18.2 13.59,-8.33 30.1,-10.8 45.16,-6.81 15.06,4.02 28.54,14.5 36.83,28.65 -25.37,-10.8 -54.22,-11.93 -79.24,-3.64z"/>
   <path class="fil8" d="M301.59 295.79c4.99,0 9.03,4.04 9.03,9.03 0,4.99 -4.04,9.03 -9.03,9.03 -4.99,0 -9.03,-4.04 -9.03,-9.03 0,-4.99 4.04,-9.03 9.03,-9.03z"/>
   <path class="fil8" d="M397.76 295.79c4.99,0 9.03,4.04 9.03,9.03 0,4.99 -4.04,9.03 -9.03,9.03 -4.99,0 -9.03,-4.04 -9.03,-9.03 0,-4.99 4.04,-9.03 9.03,-9.03z"/>
   <g>
    <path class="fil9" d="M346.18 297.98c0,-1.94 1.59,-3.53 3.53,-3.53 1.94,0 3.53,1.59 3.53,3.53l-7.06 0zm0 59.72l0 -59.72 7.06 0 0 59.72 -7.06 0zm7.06 0c0,1.94 -1.59,3.53 -3.53,3.53 -1.94,0 -3.53,-1.59 -3.53,-3.53l7.06 0z"/>
   </g>
  </g>
 </g>
</svg>
