<?xml version="1.0" encoding="UTF-8"?>
<!DOCTYPE svg PUBLIC "-//W3C//DTD SVG 1.1//EN" "http://www.w3.org/Graphics/SVG/1.1/DTD/svg11.dtd">
<!-- Creator: CorelDRAW -->
<svg xmlns="http://www.w3.org/2000/svg" xml:space="preserve" width="14mm" height="10mm" version="1.1" style="shape-rendering:geometricPrecision; text-rendering:geometricPrecision; image-rendering:optimizeQuality; fill-rule:evenodd; clip-rule:evenodd"
viewBox="0 0 1400 1000"
 xmlns:xlink="http://www.w3.org/1999/xlink"
 xmlns:xodm="http://www.corel.com/coreldraw/odm/2003">
 <defs>
  <style type="text/css">
   <![CDATA[
    .fil0 {fill:#0D6EFD}
   ]]>
  </style>
 </defs>
 <g id="Camada_x0020_1">
  <metadata id="CorelCorpID_0Corel-Layer"/>
  <path class="fil0" d="M108.11 395.59c-59.54,-10.2 -76.02,-40.27 -37.47,-95.76l168.6 -212.72c3.66,-4.33 8.13,-7.5 14.25,-8.28l370.14 -0.31 369.53 0.36c7.06,0.93 12.1,3.74 15.36,8.21l168.62 212.74c38.55,55.49 22.07,85.56 -37.47,95.76l-1031.56 0zm113.61 -214.55l52.21 0c11.79,0 20.76,0.89 26.94,2.71 8.28,2.44 15.41,6.8 21.32,13.07 5.94,6.24 10.43,13.9 13.53,22.97 3.07,9.05 4.62,20.24 4.62,33.5 0,11.69 -1.45,21.72 -4.35,30.17 -3.54,10.33 -8.59,18.68 -15.15,25.06 -4.96,4.85 -11.66,8.61 -20.07,11.32 -6.31,2.01 -14.72,3 -25.29,3l-53.76 0 0 -141.8zm28.71 23.97l0 93.87 21.29 0c7.96,0 13.7,-0.46 17.23,-1.36 4.66,-1.15 8.48,-3.13 11.52,-5.9 3.07,-2.78 5.55,-7.33 7.46,-13.67 1.95,-6.34 2.9,-15.02 2.9,-25.98 0,-10.95 -0.95,-19.34 -2.9,-25.21 -1.91,-5.88 -4.62,-10.43 -8.09,-13.73 -3.46,-3.27 -7.85,-5.52 -13.2,-6.67 -3.96,-0.89 -11.78,-1.35 -23.4,-1.35l-12.81 0zm173.51 85.35l27.13 4.56c-3.46,9.93 -8.98,17.49 -16.47,22.7 -7.52,5.19 -16.93,7.79 -28.19,7.79 -17.85,0 -31.09,-5.84 -39.64,-17.52 -6.76,-9.38 -10.16,-21.19 -10.16,-35.48 0,-17.04 4.45,-30.4 13.33,-40.04 8.88,-9.67 20.14,-14.49 33.73,-14.49 15.25,0 27.3,5.05 36.15,15.15 8.81,10.1 13.03,25.58 12.64,46.44l-67.93 0c0.2,8.05 2.38,14.32 6.57,18.81 4.16,4.49 9.37,6.74 15.58,6.74 4.26,0 7.82,-1.16 10.69,-3.47 2.91,-2.31 5.09,-6.04 6.57,-11.19zm1.59 -27.53c-0.2,-7.88 -2.22,-13.89 -6.08,-17.98 -3.86,-4.13 -8.55,-6.18 -14.09,-6.18 -5.91,0 -10.8,2.18 -14.66,6.51 -3.86,4.32 -5.74,10.23 -5.67,17.65l40.5 0zm48.35 -42.77l25.35 0 0 15.08c3.3,-5.15 7.72,-9.31 13.32,-12.51 5.61,-3.17 11.85,-4.75 18.68,-4.75 11.92,0 22.05,4.69 30.37,14.06 8.32,9.34 12.47,22.41 12.47,39.11 0,17.2 -4.19,30.53 -12.57,40.07 -8.38,9.54 -18.55,14.29 -30.5,14.29 -5.68,0 -10.82,-1.12 -15.45,-3.4 -4.58,-2.24 -9.46,-6.1 -14.54,-11.58l0 51.42 -27.13 0 0 -141.79zm26.73 49.8c0,11.59 2.28,20.14 6.87,25.68 4.54,5.52 10.12,8.29 16.66,8.29 6.3,0 11.55,-2.54 15.74,-7.63 4.19,-5.08 6.27,-13.4 6.27,-24.98 0,-10.83 -2.14,-18.85 -6.47,-24.1 -4.29,-5.25 -9.64,-7.85 -16.01,-7.85 -6.63,0 -12.14,2.57 -16.49,7.72 -4.39,5.15 -6.57,12.77 -6.57,22.87zm88.68 0.33c0,-9.04 2.21,-17.79 6.67,-26.24 4.45,-8.48 10.76,-14.91 18.91,-19.37 8.15,-4.46 17.23,-6.7 27.3,-6.7 15.54,0 28.25,5.05 38.18,15.15 9.93,10.13 14.88,22.87 14.88,38.32 0,15.58 -5.01,28.48 -15.02,38.72 -10.02,10.23 -22.63,15.34 -37.84,15.34 -9.41,0 -18.39,-2.14 -26.94,-6.4 -8.51,-4.26 -15.02,-10.49 -19.47,-18.75 -4.46,-8.22 -6.67,-18.25 -6.67,-30.07zm27.93 1.46c0,10.2 2.4,18.02 7.22,23.43 4.86,5.45 10.8,8.15 17.89,8.15 7.07,0 13.01,-2.7 17.79,-8.15 4.79,-5.41 7.2,-13.3 7.2,-23.63 0,-10.07 -2.41,-17.82 -7.2,-23.24 -4.78,-5.44 -10.72,-8.15 -17.79,-8.15 -7.09,0 -13.03,2.71 -17.89,8.15 -4.82,5.42 -7.22,13.24 -7.22,23.44zm12.67 -64.86l13.47 -28.92 30.29 0 -26.73 28.92 -17.03 0zm76.99 87.14l27.33 -4.16c1.16,5.25 3.5,9.24 7.07,11.95 3.53,2.74 8.51,4.09 14.88,4.09 7.03,0 12.32,-1.29 15.88,-3.86 2.38,-1.82 3.56,-4.26 3.56,-7.3 0,-2.04 -0.66,-3.76 -1.94,-5.11 -1.36,-1.29 -4.39,-2.51 -9.08,-3.6 -21.95,-4.85 -35.84,-9.28 -41.72,-13.27 -8.15,-5.58 -12.21,-13.3 -12.21,-23.17 0,-8.95 3.53,-16.44 10.56,-22.51 7.03,-6.07 17.92,-9.11 32.68,-9.11 14.06,0 24.52,2.31 31.35,6.9 6.84,4.62 11.56,11.42 14.13,20.43l-25.55 4.75c-1.09,-4.03 -3.2,-7.13 -6.27,-9.27 -3.07,-2.15 -7.46,-3.21 -13.17,-3.21 -7.19,0 -12.34,0.99 -15.48,3.01 -2.08,1.42 -3.1,3.27 -3.1,5.51 0,1.95 0.89,3.6 2.71,4.95 2.47,1.82 10.95,4.36 25.48,7.66 14.52,3.3 24.65,7.33 30.4,12.11 5.71,4.82 8.54,11.59 8.54,20.24 0,9.4 -3.92,17.52 -11.81,24.29 -7.86,6.76 -19.51,10.16 -34.96,10.16 -13.99,0 -25.08,-2.83 -33.27,-8.48 -8.15,-5.64 -13.5,-13.3 -16.01,-23zm119.85 -87.74l0 -25.15 27.12 0 0 25.15 -27.12 0zm0 116.65l0 -102.78 27.12 0 0 102.78 -27.12 0zm101.94 -102.78l0 21.58 -18.61 0 0 41.63c0,8.44 0.16,13.36 0.53,14.75 0.36,1.39 1.15,2.54 2.44,3.46 1.25,0.9 2.77,1.36 4.59,1.36 2.54,0 6.17,-0.86 10.96,-2.61l2.27 21.12c-6.3,2.71 -13.43,4.06 -21.42,4.06 -4.88,0 -9.27,-0.82 -13.2,-2.47 -3.93,-1.65 -6.8,-3.8 -8.62,-6.4 -1.84,-2.64 -3.1,-6.18 -3.82,-10.67 -0.57,-3.16 -0.86,-9.57 -0.86,-19.24l0 -44.99 -12.48 0 0 -21.58 12.48 0 0 -20.4 27.13 -16.04 0 36.44 18.61 0zm12.68 50.13c0,-9.04 2.21,-17.79 6.67,-26.24 4.45,-8.48 10.76,-14.91 18.91,-19.37 8.15,-4.46 17.23,-6.7 27.3,-6.7 15.53,0 28.24,5.05 38.18,15.15 9.93,10.13 14.88,22.87 14.88,38.32 0,15.58 -5.01,28.48 -15.02,38.72 -10.03,10.23 -22.64,15.34 -37.84,15.34 -9.41,0 -18.39,-2.14 -26.94,-6.4 -8.51,-4.26 -15.02,-10.49 -19.47,-18.75 -4.46,-8.22 -6.67,-18.25 -6.67,-30.07zm27.93 1.46c0,10.2 2.4,18.02 7.22,23.43 4.86,5.45 10.8,8.15 17.89,8.15 7.06,0 13,-2.7 17.78,-8.15 4.79,-5.41 7.2,-13.3 7.2,-23.63 0,-10.07 -2.41,-17.82 -7.2,-23.24 -4.78,-5.44 -10.72,-8.15 -17.78,-8.15 -7.09,0 -13.03,2.71 -17.89,8.15 -4.82,5.42 -7.22,13.24 -7.22,23.44zm-643.64 155.94l0 280.75 295.09 -2.63 2.6 -278.12 113.8 0c0.17,1.31 0.25,2.64 0.25,4l0 466.67c0,17.93 -14.66,32.59 -32.59,32.59l-471.65 0c-17.93,0 -32.59,-14.66 -32.59,-32.59l0 -466.67c0,-1.36 0.08,-2.69 0.25,-4l124.84 0zm719.52 0l0 476.7c0,14.61 -11.95,26.56 -26.56,26.56l-51.49 0c-14.61,0 -26.56,-11.95 -26.56,-26.56l0 -476.7 104.61 0zm140.59 187.14c75.05,81.95 38.51,157.46 -36.3,217.49 -25.76,20.67 -56.06,39.5 -87.92,56.08l-81.93 -72.83 -15.32 26.55 61.62 63.64c-62.05,28.29 -125.8,47.86 -170.76,55.81 10.43,-78.33 52.05,-213.24 115.56,-300.61l54.96 48.51 25.53 7.15 0 -32.69 -58.95 -49.7c53.13,-59.01 118.98,-82.17 193.51,-19.4zm-2.19 -58.83c25.86,13.8 47.61,32.58 60.98,61.37 7.71,7.63 13.87,10.2 19.16,9.95l58.85 3.01c60.24,-22.65 57.79,-44.8 3.55,-66.12l-71.39 -0.5c-7.17,0.8 -10.71,-3.61 -10.48,-13.48l5.99 -72.37c-25.81,-59.19 -49.45,-63.83 -69.94,-16.53l-3.67 71.37c0.61,10.57 3.12,18.69 6.95,23.3z"/>
 </g>
</svg>
