<?xml version="1.0" encoding="UTF-8"?>
<!DOCTYPE svg PUBLIC "-//W3C//DTD SVG 1.1//EN" "http://www.w3.org/Graphics/SVG/1.1/DTD/svg11.dtd">
<!-- Creator: CorelDRAW -->
<svg xmlns="http://www.w3.org/2000/svg" xml:space="preserve" width="40mm" height="40mm" version="1.1" style="shape-rendering:geometricPrecision; text-rendering:geometricPrecision; image-rendering:optimizeQuality; fill-rule:evenodd; clip-rule:evenodd"
viewBox="0 0 4000 4000"
 xmlns:xlink="http://www.w3.org/1999/xlink"
 xmlns:xodm="http://www.corel.com/coreldraw/odm/2003">
 <defs>
  <style type="text/css">
   <![CDATA[
    .str1 {stroke:#FEFEFE;stroke-width:50;stroke-miterlimit:22.9256}
    .str2 {stroke:#FEFEFE;stroke-width:25;stroke-miterlimit:22.9256}
    .str0 {stroke:#FEFEFE;stroke-width:20;stroke-miterlimit:22.9256}
    .fil2 {fill:none}
    .fil0 {fill:#FEFEFE}
    .fil1 {fill:#E6E7E8}
   ]]>
  </style>
 </defs>
 <g id="Camada_x0020_1">
  <metadata id="CorelCorpID_0Corel-Layer"/>
  <rect class="fil0" x="950.34" y="2645.17" width="1902.59" height="848.08"/>
  <rect class="fil0" x="889.19" y="2537.81" width="2028.46" height="107.8"/>
  <rect class="fil0" x="790.19" y="2478.41" width="2217.67" height="61.6"/>
  <rect class="fil0" x="1536.33" y="1972.11" width="735.02" height="435.94"/>
  <path class="fil0" d="M1319.22 1552l295.39 168.6c154.49,222.79 402.17,238.15 577.93,1.78l290.7 -170.38 220.74 -532.96 141.23 166.01 -197 491.62 -246.98 153.86 270.43 103.37 562.88 -16.66 24.01 -0.9 46.48 -106.39 104.78 58.7 57.14 -116.87 455.57 229.36 -289.13 576.9 -451.52 -226.47 60 -110.75 -111.92 -60.82 27.65 -58.02 -507.37 31.34 -181.88 -60.83c93.42,268.79 70.79,412.71 -125.98,369.81l-0.11 -34.59 -46.83 -0.01 1.23 -463.54 -800 -0.14 -1.9 463.88 -45.48 -0.5 0.24 34.9c-170.82,26.19 -215.84,-93.12 -120.36,-372.47l-186.97 67.45 -363.12 -15.79c55.01,-19.35 42.78,-94.08 -16.36,-207.45l345.64 25.96 298.72 -117.7 -259.01 -143.36 -140.01 -343.73 140.41 -176.28 170.76 393.07z"/>
  <path class="fil1" d="M3325.69 1865.7l-26.76 52.01c-1.16,2.25 -2.32,4.49 -3.47,6.74 33.2,57.03 3.69,112.79 -86.1,167.31l-3.85 7.48 -24.68 47.96 64.2 37.86 144.86 -291.37 -64.2 -27.99z"/>
  <circle class="fil0" cx="1915.83" cy="1581.51" r="269.95"/>
  <path class="fil1" d="M1724.46 1660.95c113.73,3.23 227.46,6.47 341.19,9.7 -99.11,188.84 -170.42,86.58 -341.19,-9.7z"/>
  <path class="fil0" d="M1282.41 3540.74l294.31 0c-79.05,228.09 -299.95,93.38 -294.31,0z"/>
  <path class="fil0" d="M2220.07 3544.93l286.37 -2.78c-78.73,227.62 -299.5,76.65 -286.37,2.78z"/>
  <rect class="fil0" x="966.89" y="3493.25" width="61.79" height="171.71"/>
  <rect class="fil0" x="2778.92" y="3490.45" width="61.79" height="171.71"/>
  <polygon class="fil0" points="821.11,752.39 1184.69,1054.84 946.6,1347.64 583.01,1058.06 "/>
  <polygon class="fil1" points="821.11,752.39 525.1,913.27 631.34,996.02 "/>
  <rect class="fil0" transform="matrix(0.43724 -0.162005 0.162004 0.437241 399.671 1683.17)" width="486.59" height="1113.07" rx="72.72" ry="72.72"/>
  <ellipse class="fil1" cx="491.63" cy="1759.45" rx="28" ry="27.99"/>
  <rect class="fil0" transform="matrix(0.308311 -0.254842 0.254841 0.308311 2642.19 945.836)" width="81.78" height="1214.02"/>
  <path class="fil0" d="M2730.19 1000.96c97.72,2.54 137.79,55.8 127.08,153.74l-127.08 -153.74z"/>
  <polygon class="fil0" points="2661.66,914.51 2632.16,936.96 2605.23,881.8 "/>
  <path class="fil0" d="M909.9 3543.35l2.26 77.15 -17.69 -0.08c-8.02,24.1 -19.12,22.24 -24.22,-0.13l-13.09 -0.07 -3.93 -76.37 -390.34 3.51 -0.2 74.76 -15.44 0.2c-6.89,23.41 -23.52,23.48 -24.89,0.32l-19.09 0.25 1.15 -75.01 -40.51 0.37 -54.35 -71.12 0 -752.03c8.16,-34.03 27.56,-58.94 66.33,-68.48l43.55 -0.44 2.66 -301.78c13.74,-36.7 36.71,-66.93 85.58,-79.04l312.69 -3.39c48.54,21.47 75.2,48.42 81.61,80.43l2.97 85.07 -48.28 0.64 0.46 -70.26c3.54,-26.44 -9.09,-44.78 -47.7,-50.15l-289.75 -0.62c-28.07,7.99 -47.09,25.03 -54.08,54.08l-2.58 283.41 381.5 -2.67 0.39 43.68 64.99 0.3 0 135.3 -502.88 2.14 0.67 53.33 502.21 -4.33 0 661.03z"/>
  <g id="_2719502371952">
   <circle class="fil2 str0" cx="1928.36" cy="651.23" r="407.22"/>
   <line class="fil2 str1" x1="1846.49" y1="468.72" x2="1956.35" y2= "703.59" />
   <line class="fil2 str2" x1="1880.58" y1="684.65" x2="2172.27" y2= "512.29" />
   <line class="fil2 str0" x1="1937.65" y1="913.76" x2="1928.36" y2= "1058.45" />
   <line class="fil2 str0" x1="2090.45" y1="926.29" x2="2135.23" y2= "1002.06" />
   <line class="fil2 str0" x1="2205.68" y1="811.06" x2="2281.19" y2= "854.69" />
   <line class="fil2 str0" x1="2203.18" y1="653.25" x2="2335.57" y2= "654.19" />
   <line class="fil2 str0" x1="2213.19" y1="487.91" x2="2281.65" y2= "448.56" />
   <line class="fil2 str0" x1="2097.96" y1="380.2" x2="2144.5" y2= "306.03" />
   <line class="fil2 str0" x1="1935.14" y1="382.71" x2="1938.55" y2= "244.13" />
   <line class="fil2 str0" x1="1762.3" y1="370.18" x2="1721.09" y2= "300.62" />
   <line class="fil2 str0" x1="1639.56" y1="487.91" x2="1573.87" y2= "450.67" />
   <line class="fil2 str0" x1="1664.61" y1="658.26" x2="1521.14" y2= "651.23" />
   <line class="fil2 str0" x1="1664.61" y1="808.55" x2="1578.64" y2= "859.98" />
   <line class="fil2 str0" x1="1769.81" y1="921.28" x2="1722.05" y2= "1002.4" />
  </g>
 </g>
</svg>
