<?xml version="1.0" encoding="UTF-8"?>
<!DOCTYPE svg PUBLIC "-//W3C//DTD SVG 1.1//EN" "http://www.w3.org/Graphics/SVG/1.1/DTD/svg11.dtd">
<!-- Creator: CorelDRAW -->
<svg xmlns="http://www.w3.org/2000/svg" xml:space="preserve" width="18mm" height="21mm" version="1.1" style="shape-rendering:geometricPrecision; text-rendering:geometricPrecision; image-rendering:optimizeQuality; fill-rule:evenodd; clip-rule:evenodd"
viewBox="0 0 1800 2100"
 xmlns:xlink="http://www.w3.org/1999/xlink"
 xmlns:xodm="http://www.corel.com/coreldraw/odm/2003">
 <defs>
  <style type="text/css">
   <![CDATA[
    .fil7 {fill:#FEFEFE}
    .fil5 {fill:#5E5452}
    .fil6 {fill:#B5B5B5}
    .fil1 {fill:#B60306}
    .fil3 {fill:#CD050B}
    .fil0 {fill:#DF0E11}
    .fil4 {fill:#F6F4F5}
    .fil2 {fill:#FBFBFB}
   ]]>
  </style>
 </defs>
 <g id="Camada_x0020_1">
  <metadata id="CorelCorpID_0Corel-Layer"/>
  <rect class="fil0" x="83.32" y="60.36" width="1662.81" height="1951.65" rx="127.91" ry="130.53"/>
  <rect class="fil1" x="86.89" y="97.43" width="1655.66" height="1910.38" rx="127.36" ry="127.77"/>
  <rect class="fil2" x="86.89" y="142.62" width="1655.66" height="1865.19" rx="127.36" ry="124.75"/>
  <path class="fil3" d="M85.37 762.35l0 -495.98c0,-68.96 57.24,-125.38 127.22,-125.38l1399.42 0c69.97,0 127.22,56.42 127.22,125.38l0 495.98 -1653.86 0z"/>
  <circle class="fil4" cx="192.38" cy="766.83" r="22.5"/>
  <circle class="fil4" cx="450.38" cy="766.83" r="22.5"/>
  <circle class="fil4" cx="708.38" cy="766.83" r="22.5"/>
  <circle class="fil4" cx="966.38" cy="766.83" r="22.5"/>
  <circle class="fil4" cx="1224.38" cy="766.83" r="22.5"/>
  <circle class="fil4" cx="1482.38" cy="766.83" r="22.5"/>
  <circle class="fil4" cx="276.38" cy="766.83" r="22.5"/>
  <circle class="fil4" cx="534.38" cy="766.83" r="22.5"/>
  <circle class="fil4" cx="792.38" cy="766.83" r="22.5"/>
  <circle class="fil4" cx="1050.38" cy="766.83" r="22.5"/>
  <circle class="fil4" cx="1308.38" cy="766.83" r="22.5"/>
  <circle class="fil4" cx="1566.38" cy="766.83" r="22.5"/>
  <circle class="fil4" cx="364.88" cy="766.83" r="22.5"/>
  <circle class="fil4" cx="622.88" cy="766.83" r="22.5"/>
  <circle class="fil4" cx="880.88" cy="766.83" r="22.5"/>
  <circle class="fil4" cx="1138.88" cy="766.83" r="22.5"/>
  <circle class="fil4" cx="1396.88" cy="766.83" r="22.5"/>
  <circle class="fil4" cx="1654.88" cy="766.83" r="22.5"/>
  <circle class="fil5" cx="1542.77" cy="306.3" r="71.55"/>
  <circle class="fil5" cx="282.37" cy="299.54" r="71.55"/>
  <circle class="fil6" cx="1542.09" cy="308.48" r="53.43"/>
  <circle class="fil6" cx="282.17" cy="301.71" r="53.43"/>
  <rect class="fil7" x="125.65" y="765.76" width="1570.91" height="104.63"/>
 </g>
</svg>
