<?xml version="1.0" encoding="UTF-8"?>
<!DOCTYPE svg PUBLIC "-//W3C//DTD SVG 1.1//EN" "http://www.w3.org/Graphics/SVG/1.1/DTD/svg11.dtd">
<!-- Creator: CorelDRAW -->
<svg xmlns="http://www.w3.org/2000/svg" xml:space="preserve" width="18mm" height="21mm" version="1.1" style="shape-rendering:geometricPrecision; text-rendering:geometricPrecision; image-rendering:optimizeQuality; fill-rule:evenodd; clip-rule:evenodd"
viewBox="0 0 1800 2100"
 xmlns:xlink="http://www.w3.org/1999/xlink"
 xmlns:xodm="http://www.corel.com/coreldraw/odm/2003">
 <defs>
  <style type="text/css">
   <![CDATA[
    .fil9 {fill:#FEFEFE;fill-rule:nonzero}
    .fil10 {fill:#373435;fill-rule:nonzero}
    .fil0 {fill:#FBF9D8;fill-rule:nonzero}
    .fil7 {fill:#F8CF80;fill-rule:nonzero}
    .fil4 {fill:#F6D381;fill-rule:nonzero}
    .fil5 {fill:#EBB361;fill-rule:nonzero}
    .fil6 {fill:#E1DBB6;fill-rule:nonzero}
    .fil2 {fill:#D4AE6B;fill-rule:nonzero}
    .fil1 {fill:#CC8847;fill-rule:nonzero}
    .fil3 {fill:#CAC3A2;fill-rule:nonzero}
    .fil8 {fill:#AE733C;fill-rule:nonzero}
    .fil11 {fill:#BBB69F;fill-rule:nonzero}
   ]]>
  </style>
 </defs>
 <g id="Camada_x0020_1">
  <metadata id="CorelCorpID_0Corel-Layer"/>
  <path class="fil0" d="M1534.5 974.44c-7.12,-36.31 -17.26,-71.55 -30.15,-105.43 -7.41,-19.5 -15.74,-38.54 -24.91,-57.09 0,-0.01 0,-0.02 -0.02,-0.03 -9.03,-18.25 -18.89,-36.02 -29.54,-53.25 -29.16,-14.41 -59.57,-26.66 -91,-36.64 84.97,102.94 135.99,234.7 135.99,378.33 0,329.39 -268.28,596.38 -599.17,596.38 -123.54,0 -238.34,-37.24 -333.72,-101.02 13.92,38.89 45.62,88.53 45.62,88.53 25.22,13.43 64.04,28.85 93.63,37.55 19.52,5.73 39.24,11.23 59.4,15.49l0 0c27.25,5.74 55.11,9.81 83.49,12.03 17.02,1.34 34.22,2.03 51.58,2.03 6.74,0 13.45,-0.13 20.13,-0.34l0 0c33.92,-1.03 67.19,-4.66 99.61,-10.69 302.33,-56.22 531.26,-321.34 531.26,-639.96 0,-43.07 -4.22,-85.16 -12.2,-125.89z"/>
  <path class="fil1" d="M1546.7 1100.33c0,318.62 -228.93,583.74 -531.26,639.96l-41.53 61.28c352.84,-38.93 627.31,-338.01 627.31,-701.23 0,-64.85 -8.77,-127.63 -25.13,-187.27l-41.59 61.37c7.98,40.73 12.2,82.82 12.2,125.89z"/>
  <path class="fil2" d="M1439.05 741.71c3.69,5.58 7.3,11.22 10.83,16.92 0,0 0,0.01 0,0.01l0 0c10.65,17.23 20.51,35 29.54,53.25l34.73 -51.26c-14.91,-27.1 -31.58,-53.12 -49.88,-77.93l-32.34 48.47c2.31,3.33 4.58,6.68 6.8,10.05 0.11,0.17 0.23,0.33 0.32,0.49z"/>
  <path class="fil1" d="M1540.8 814.38c-8.11,-18.33 -17.01,-36.25 -26.62,-53.72l-34.74 51.26c9.17,18.55 17.5,37.59 24.91,57.09l36.45 -54.63z"/>
  <path class="fil2" d="M1534.5 974.44l41.59 -61.37c0,-0.01 0,-0.02 -0.02,-0.04 -9.34,-33.95 -21.14,-66.93 -35.25,-98.64 -0.02,0 -0.02,-0.01 -0.02,-0.01l-36.45 54.63c12.89,33.88 23.03,69.12 30.15,105.43z"/>
  <path class="fil0" d="M1291.24 1495.92c-98.42,97.5 -233.01,158.85 -381.99,162.37l0 26.98c156.48,-3.52 297.79,-67.86 401.14,-170.21l-19.15 -19.14z"/>
  <path class="fil0" d="M1456.36 1105.97c-1.47,148.34 -61.05,282.8 -157.2,381.92l19.14 19.15c101.11,-104.05 163.75,-245.25 165.23,-401.07l-27.17 0z"/>
  <path class="fil3" d="M245.02 1119.87c0.03,1.07 0.05,2.14 0.09,3.21 0.09,2.52 0.25,5.02 0.37,7.53 0.14,3.02 0.26,6.03 0.44,9.03 0.12,2.01 0.23,4.02 0.37,6.03 0.21,2.97 0.48,5.94 0.73,8.9 0.17,2.08 0.31,4.16 0.5,6.23 0.14,1.5 0.25,3.01 0.4,4.5 0.09,0.92 0.22,1.82 0.31,2.74 0.33,3.15 0.7,6.27 1.07,9.4 0.28,2.35 0.5,4.7 0.8,7.03 0.15,1.18 0.34,2.34 0.5,3.51 0.1,0.75 0.22,1.48 0.32,2.23 0.45,3.2 0.92,6.4 1.41,9.59 0.19,1.25 0.35,2.51 0.55,3.75 0.29,1.86 0.61,3.72 0.92,5.56 0.17,1.02 0.37,2.03 0.55,3.04 0.56,3.22 1.13,6.44 1.73,9.64 0.09,0.49 0.17,0.96 0.26,1.44 0.31,1.66 0.62,3.31 0.95,4.95 0.38,1.92 0.82,3.81 1.22,5.72 0.66,3.19 1.32,6.38 2.03,9.57 0.91,4.02 1.88,8.01 2.86,12.01 0.76,3.12 1.5,6.24 2.3,9.35 0.08,0.29 0.15,0.6 0.23,0.89 0.29,1.14 0.61,2.27 0.92,3.41 0.71,2.66 1.49,5.3 2.24,7.97 0.82,2.92 1.6,5.87 2.46,8.77 0.26,0.87 0.54,1.73 0.8,2.6 1.28,4.24 2.63,8.46 4,12.67 1.44,4.44 2.94,8.85 4.47,13.25 1.37,3.92 2.71,7.85 4.15,11.75 1.27,3.43 2.62,6.82 3.95,10.21 0.93,2.39 1.82,4.8 2.77,7.17 0.27,0.67 0.55,1.33 0.82,2 0.07,0.18 0.15,0.36 0.23,0.54 1.45,3.56 2.97,7.07 4.48,10.59 0.78,1.83 1.53,3.68 2.33,5.5 0.2,0.46 0.4,0.92 0.6,1.39 0.31,0.7 0.65,1.37 0.96,2.09 1.61,3.6 3.28,7.17 4.95,10.74 1.33,2.81 2.65,5.62 4.01,8.42 1.78,3.64 3.59,7.26 5.43,10.86 1.34,2.63 2.7,5.25 4.08,7.86 1.95,3.7 3.93,7.39 5.95,11.05 1.32,2.38 2.66,4.76 4.01,7.11 2.17,3.83 4.36,7.64 6.6,11.41 1.2,2.01 2.44,3.98 3.65,5.98 2.49,4.05 4.97,8.12 7.53,12.11 0.77,1.21 1.57,2.38 2.35,3.58 13.48,20.71 28.09,40.61 43.77,59.59 0.66,0.81 1.3,1.62 1.97,2.41 3.5,4.2 7.07,8.33 10.67,12.43 0.96,1.09 1.9,2.2 2.87,3.28 3.54,3.99 7.14,7.91 10.77,11.8 1.05,1.13 2.1,2.26 3.16,3.38 3.67,3.88 7.39,7.71 11.16,11.5 1.02,1.03 2.04,2.04 3.07,3.06 3.89,3.86 7.82,7.69 11.81,11.46 0.84,0.79 1.69,1.57 2.53,2.35 4.25,3.97 8.53,7.9 12.89,11.75 0.33,0.29 0.66,0.57 1,0.86 24.73,21.82 51.13,41.79 78.98,59.69 0.02,0.01 0.04,0.02 0.05,0.03l0 0c-47.58,-51.34 -86.98,-110.37 -116.14,-175 -82.38,-102.14 -131.7,-231.82 -131.7,-373.01 0.01,-329.4 268.28,-596.38 599.17,-596.38 101.85,0 197.76,25.33 281.75,69.96 70.47,17.31 136.46,46 195.83,84.14 -10.55,-11.37 -21.51,-22.36 -32.82,-32.95 -0.98,-0.93 -1.98,-1.86 -2.96,-2.79 -3.22,-2.96 -6.45,-5.88 -9.71,-8.79 -1.16,-1.01 -2.31,-2.02 -3.46,-3.04 -3.33,-2.9 -6.67,-5.81 -10.06,-8.65 -0.65,-0.56 -1.33,-1.09 -1.98,-1.65 -11.15,-9.29 -22.59,-18.21 -34.34,-26.75 -1.4,-1.01 -2.8,-2.04 -4.23,-3.05 -3.27,-2.35 -6.58,-4.65 -9.91,-6.94 -1.67,-1.14 -3.35,-2.29 -5.03,-3.41 -3.29,-2.22 -6.6,-4.43 -9.93,-6.58 -1.61,-1.05 -3.24,-2.06 -4.85,-3.09 -11.11,-7.05 -22.44,-13.77 -33.99,-20.15 -2.18,-1.21 -4.35,-2.42 -6.55,-3.59 -3.08,-1.67 -6.2,-3.3 -9.31,-4.9 -2.42,-1.26 -4.86,-2.5 -7.29,-3.71 -3.04,-1.53 -6.09,-3.05 -9.15,-4.52 -2.66,-1.28 -5.34,-2.52 -8.01,-3.77 -2.92,-1.36 -5.82,-2.73 -8.75,-4.04 -5.08,-2.27 -10.21,-4.47 -15.35,-6.63 -0.12,-0.05 -0.24,-0.09 -0.36,-0.14 -2.65,-1.1 -5.35,-2.14 -8.01,-3.22 -2.22,-0.88 -4.43,-1.8 -6.65,-2.66 -0.71,-0.28 -1.43,-0.54 -2.16,-0.82 -0.25,-0.1 -0.5,-0.18 -0.75,-0.28 -2.78,-1.06 -5.58,-2.09 -8.38,-3.12 -1.31,-0.47 -2.61,-0.98 -3.92,-1.45 -1.06,-0.37 -2.12,-0.73 -3.17,-1.11 -0.85,-0.29 -1.7,-0.59 -2.55,-0.88 -2.73,-0.95 -5.47,-1.89 -8.22,-2.81 -0.48,-0.16 -0.96,-0.33 -1.44,-0.49 -1.32,-0.44 -2.66,-0.86 -3.98,-1.29 -1.77,-0.57 -3.54,-1.11 -5.31,-1.66 -2.43,-0.77 -4.85,-1.56 -7.3,-2.29 -1.19,-0.36 -2.4,-0.7 -3.6,-1.06 -3.68,-1.08 -7.38,-2.13 -11.08,-3.15 -0.96,-0.27 -1.91,-0.54 -2.86,-0.8 -1.86,-0.51 -3.72,-0.95 -5.59,-1.44 -2.48,-0.65 -4.95,-1.29 -7.45,-1.91 -1.87,-0.48 -3.75,-0.93 -5.62,-1.37 -0.01,0 -0.01,0 -0.02,-0.02 -2.43,-0.57 -4.87,-1.11 -7.31,-1.66 -1.03,-0.23 -2.06,-0.48 -3.1,-0.72 -2,-0.44 -4,-0.89 -6.01,-1.31 -0.9,-0.18 -1.81,-0.36 -2.73,-0.54 -2.47,-0.52 -4.93,-1.01 -7.42,-1.5 -0.02,0 -0.03,0 -0.05,-0.02 -2.1,-0.41 -4.2,-0.81 -6.31,-1.21 -2.11,-0.37 -4.25,-0.73 -6.37,-1.09 -2.13,-0.38 -4.27,-0.77 -6.42,-1.13 -1.28,-0.21 -2.55,-0.4 -3.84,-0.62 -3.32,-0.52 -6.66,-0.99 -10,-1.47 -1.73,-0.24 -3.46,-0.52 -5.2,-0.75 -0.97,-0.13 -1.95,-0.23 -2.92,-0.36 -2.87,-0.36 -5.75,-0.7 -8.62,-1.03 -2.28,-0.26 -4.54,-0.53 -6.82,-0.78 -0.39,-0.03 -0.78,-0.06 -1.18,-0.1 -2.2,-0.23 -4.4,-0.42 -6.61,-0.62 -0.78,-0.08 -1.56,-0.14 -2.34,-0.23 -2.28,-0.19 -4.54,-0.42 -6.82,-0.6 -1.39,-0.1 -2.8,-0.18 -4.19,-0.28 -2.36,-0.16 -4.73,-0.32 -7.1,-0.47 -1.91,-0.12 -3.84,-0.26 -5.75,-0.36 -2.68,-0.13 -5.37,-0.21 -8.04,-0.31 -2.1,-0.1 -4.19,-0.2 -6.28,-0.26 -0.95,-0.04 -1.88,-0.08 -2.83,-0.1 -5.54,-0.15 -11.1,-0.21 -16.68,-0.23 -0.18,0 -0.36,0 -0.54,0 -20.62,0 -41,1 -61.13,2.87 -105.49,9.83 -203.68,44.8 -288.49,98.89 -0.01,0.02 -0.02,0.02 -0.03,0.04 -9.23,5.88 -18.3,11.98 -27.2,18.3 -8.51,6.06 -16.87,12.3 -25.07,18.75 -16.39,12.88 -32.16,26.53 -47.23,40.91 -7.54,7.19 -14.9,14.55 -22.09,22.09 -10.78,11.3 -21.15,22.99 -31.1,35.05 -3.32,4.02 -6.59,8.08 -9.81,12.18 -6.44,8.2 -12.69,16.55 -18.74,25.06 -12.1,17.02 -23.41,34.64 -33.86,52.82 -13.06,22.72 -24.8,46.3 -35.09,70.64 -16.67,39.41 -29.55,80.81 -38.23,123.73 0,0.02 0,0.03 -0.01,0.04 -8.46,41.9 -12.92,85.24 -12.92,129.63 0,6.53 0.13,13.05 0.32,19.54z"/>
  <path class="fil4" d="M1302.78 461.27c-9.58,14.38 -19.25,28.85 -28.97,43.37 54.74,34.8 104.35,76.94 147.4,125.03l-31.1 47.18c0,0 0,0.01 0,0.01l31.11 -47.19 29.61 -44.89c-16.87,-18.16 -34.64,-35.45 -53.19,-51.88 -23.33,-20.67 -47.94,-39.92 -73.71,-57.61 -6.97,-4.78 -14.01,-9.47 -21.15,-14.02z"/>
  <path class="fil1" d="M1030.76 463.39c2.01,0.42 4.01,0.87 6.01,1.31 2.39,0.54 4.79,1.04 7.16,1.6 1.07,0.24 2.13,0.52 3.2,0.78 0.03,0 0.05,0 0.07,0.02 1.87,0.44 3.75,0.89 5.62,1.37 3.28,0.8 6.53,1.63 9.78,2.5 1.08,0.27 2.18,0.55 3.26,0.85 0.95,0.26 1.9,0.53 2.86,0.8 3.7,1.02 7.4,2.07 11.08,3.15 1.2,0.36 2.41,0.7 3.6,1.06 1.05,0.31 2.1,0.64 3.15,0.95 3.16,0.98 6.31,1.99 9.46,3 1.32,0.43 2.66,0.85 3.98,1.29 4.08,1.36 8.15,2.74 12.21,4.18 1.05,0.38 2.11,0.74 3.17,1.11 2.5,0.9 4.99,1.81 7.48,2.73 1.44,0.54 2.89,1.09 4.32,1.65 0.42,0.16 0.84,0.31 1.25,0.47 0.73,0.28 1.45,0.54 2.16,0.82 3.56,1.37 7.08,2.79 10.6,4.23 1.35,0.55 2.71,1.09 4.06,1.65 0.12,0.05 0.24,0.09 0.36,0.14 11.8,4.92 23.44,10.16 34.88,15.74 0.93,0.45 1.85,0.92 2.77,1.38 4.87,2.4 9.7,4.86 14.5,7.38 1.17,0.62 2.34,1.22 3.5,1.84 5.23,2.78 10.41,5.62 15.54,8.54 0.35,0.2 0.71,0.39 1.06,0.61 5.82,3.3 11.56,6.71 17.27,10.19 0.17,0.11 0.34,0.22 0.51,0.32 2.62,1.62 5.23,3.24 7.83,4.88 10.17,-15.15 20.31,-30.27 30.35,-45.29 -66.15,-42.12 -139.76,-73.47 -218.45,-91.67l-32.95 48.71c0.9,0.18 1.81,0.35 2.71,0.53 1.89,0.38 3.76,0.79 5.64,1.18z"/>
  <path class="fil2" d="M1243.46 549.93c2.62,1.67 5.21,3.35 7.81,5.03 0.87,0.58 1.75,1.16 2.62,1.74 4.9,3.23 9.75,6.53 14.56,9.89 0.44,0.31 0.89,0.61 1.33,0.92 10.78,7.59 21.32,15.49 31.59,23.69 0.53,0.42 1.05,0.85 1.57,1.26 4.71,3.78 9.37,7.64 13.97,11.54 0.42,0.36 0.84,0.7 1.25,1.06 10.13,8.64 19.99,17.61 29.58,26.85 0.11,0.1 0.21,0.21 0.33,0.31 4.6,4.47 9.14,9 13.63,13.6 0.34,0.33 0.67,0.67 1,1 9.44,9.73 18.58,19.74 27.41,30.03l31.1 -47.18c-43.05,-48.09 -92.66,-90.23 -147.4,-125.03l0 0c-10.04,15.02 -20.18,30.14 -30.35,45.29z"/>
  <path class="fil5" d="M612.62 453.92c17.17,-25.1 34.28,-50.15 51.25,-75.05 -69.55,22.32 -134.69,54.46 -193.86,94.71 -25.84,17.59 -50.55,36.71 -73.96,57.27 -158.13,138.83 -257.93,342.5 -257.93,569.49 0,14.44 0.39,28.73 1.2,42.99 17.01,-24.91 34.26,-50.1 51.62,-75.45 12.41,-275.01 182.35,-509 421.68,-613.96z"/>
  <path class="fil5" d="M1273.81 504.64l0 0c9.72,-14.52 19.39,-28.99 28.97,-43.37 -13.61,-8.69 -27.48,-16.9 -41.68,-24.73 -28.55,-15.74 -58.2,-29.75 -88.88,-41.73 -27.81,-10.91 -56.45,-20.23 -85.77,-27.81l-31.09 45.97c78.69,18.2 152.3,49.55 218.45,91.67z"/>
  <path class="fil5" d="M872.41 395.22c0.02,0 0.02,0 0.03,0 7.73,-0.28 15.5,-0.41 23.27,-0.41 21.03,0 41.84,0.9 62.38,2.69l32.53 -48.86c-18.71,-2.35 -37.61,-3.95 -56.7,-4.89 -8.88,-0.45 -17.77,-0.79 -26.71,-0.9l-34.8 52.37z"/>
  <path class="fil1" d="M895.7 449.33c0.18,0 0.36,0 0.54,0 5.58,0.02 11.14,0.08 16.68,0.23 0.95,0.02 1.88,0.06 2.83,0.1 1.91,0.06 3.82,0.14 5.73,0.23 0.56,0.01 1.12,0.03 1.69,0.06l34.92 -52.45c-20.54,-1.79 -41.35,-2.69 -62.38,-2.69 -7.77,0 -15.54,0.13 -23.27,0.41l-37.87 56.98c20.13,-1.87 40.51,-2.87 61.13,-2.87z"/>
  <path class="fil1" d="M330.95 776.29c10.45,-18.18 21.76,-35.8 33.86,-52.82 6.05,-8.51 12.3,-16.86 18.74,-25.06 3.22,-4.1 6.49,-8.16 9.81,-12.18 9.95,-12.06 20.32,-23.75 31.1,-35.05 7.19,-7.54 14.55,-14.9 22.09,-22.09 15.07,-14.38 30.84,-28.03 47.23,-40.91 8.2,-6.45 16.56,-12.69 25.07,-18.75 8.9,-6.32 17.97,-12.42 27.2,-18.3 22.29,-32.51 44.5,-64.93 66.57,-97.21 -239.33,104.96 -409.27,338.95 -421.68,613.96 22,-32.1 44.24,-64.53 66.69,-97.22 8.68,-42.92 21.56,-84.32 38.23,-123.73 10.29,-24.34 22.03,-47.92 35.09,-70.64z"/>
  <path class="fil4" d="M546.05 551.13c0.01,-0.02 0.02,-0.02 0.03,-0.04 22.29,-32.47 44.52,-64.92 66.59,-97.19 79.9,-35.06 167.62,-55.73 259.74,-58.68l34.8 -52.37c-3.82,-0.05 -7.69,-0.1 -11.51,-0.1 -17.48,0 -34.8,0.7 -51.99,1.86 -62.31,4.23 -122.57,15.87 -179.84,34.26 -16.97,24.9 -34.08,49.95 -51.25,75.05 -22.07,32.28 -44.28,64.7 -66.57,97.21z"/>
  <path class="fil2" d="M834.57 452.2l37.87 -56.98c-0.01,0 -0.01,0 -0.03,0 -92.12,2.95 -179.84,23.62 -259.74,58.68 -22.07,32.27 -44.3,64.72 -66.59,97.19 84.81,-54.09 183,-89.06 288.49,-98.89z"/>
  <path class="fil4" d="M923.17 449.95l0 0 34.93 -52.45c33.12,2.92 65.61,8.13 97.25,15.47l-32.95 48.71c0.01,0 0.01,0 0.01,0l32.95 -48.71 31.09 -45.97c-31.2,-8.12 -63.23,-14.31 -95.83,-18.36l-32.53 48.86 -34.92 52.45z"/>
  <path class="fil2" d="M935.82 450.59c2.02,0.13 4.05,0.24 6.05,0.39 1.75,0.11 3.5,0.23 5.24,0.36 2.28,0.18 4.54,0.41 6.82,0.6 1.34,0.13 2.71,0.25 4.05,0.38 1.14,0.1 2.28,0.18 3.41,0.29 0.9,0.1 1.78,0.2 2.67,0.28 2.28,0.25 4.54,0.52 6.82,0.78 3.26,0.38 6.52,0.76 9.76,1.18 0.6,0.07 1.2,0.13 1.78,0.21 1.74,0.23 3.47,0.51 5.2,0.75 3.34,0.48 6.68,0.95 10,1.47 1.29,0.22 2.56,0.41 3.84,0.62 1.53,0.25 3.07,0.53 4.59,0.79 2.74,0.47 5.47,0.94 8.2,1.43 2.11,0.4 4.21,0.8 6.31,1.21 0.04,0.02 0.08,0.02 0.12,0.04 0.58,0.11 1.15,0.19 1.72,0.31l32.95 -48.71c-31.64,-7.34 -64.13,-12.55 -97.25,-15.47l-34.93 52.45c2.3,0.1 4.61,0.16 6.9,0.28 1.91,0.1 3.84,0.24 5.75,0.36z"/>
  <path class="fil2" d="M512.2 1626.38c-0.03,-0.03 -0.05,-0.05 -0.08,-0.06 -10.23,15.19 -20.41,30.31 -30.45,45.28 0,0 0.01,0 0.01,0 56.93,41.38 120.33,74.42 188.41,97.38 0.01,0 0.01,0 0.02,0l31.12 -47.21c-68.59,-21.44 -132.28,-53.95 -189.03,-95.39z"/>
  <path class="fil6" d="M428.23 1473.34c29.16,64.63 68.56,123.66 116.14,175 20.34,13.07 41.42,25.1 63.23,35.88 -17.38,-28.14 -32.61,-57.75 -45.62,-88.53 -50.59,-33.83 -95.69,-75.15 -133.75,-122.35z"/>
  <path class="fil5" d="M1576.09 913.07c16.36,59.64 25.13,122.42 25.13,187.27 0,363.22 -274.47,662.3 -627.31,701.23l-0.01 0 -37.48 55.29c101.4,-5.37 197.48,-30.72 284.45,-72.11 25.5,-12.14 50.24,-25.64 74.06,-40.44l68.75 131.29c-8.33,4.2 -15.68,9.93 -21.72,16.81 -9.69,11.01 -16.06,24.86 -17.71,39.96 4.43,39.67 40.1,68.34 79.83,64.07 34.5,-3.72 60.69,-31.06 64.3,-64.19l0.05 0.28c-4.29,-39.82 -40.06,-68.62 -79.88,-64.35 -4.13,0.46 -8.12,1.31 -11.99,2.41l-46.39 -149.61c195.38,-137.04 323.12,-363.92 323.12,-620.64 0,-84.87 -13.96,-166.5 -39.69,-242.67l-37.53 55.36c0.02,0.02 0.02,0.03 0.02,0.04z"/>
  <path class="fil5" d="M670.11 1768.98c-0.01,0 -0.01,0 -0.02,0l-29.6 44.89c18.69,6.66 37.72,12.66 57.09,17.87l30.63 -45.91c-19.73,-4.81 -39.09,-10.42 -58.1,-16.85z"/>
  <path class="fil5" d="M809.34 1800.62c-0.01,0 -0.02,0 -0.03,0l-32.52 47.98c22.61,3.62 45.55,6.18 68.78,7.69l33.79 -50.63c-23.64,-0.55 -47.01,-2.25 -70.02,-5.04z"/>
  <path class="fil5" d="M481.67 1671.6c-63.69,-46.16 -119.28,-102.74 -164.4,-167.23 0,0 0,0 0,0l-31.06 45.93c20.04,27.14 41.87,52.93 65.35,77.14 20.24,20.9 41.68,40.62 64.24,59.12 11.97,9.8 24.24,19.27 36.85,28.34 9.57,-14.3 19.27,-28.76 29.03,-43.3 0,0 -0.01,0 -0.01,0z"/>
  <path class="fil5" d="M271.3 1429c-13.08,-24.72 -24.68,-50.24 -34.75,-76.58l0 0 -34.77 52.36c11.01,25.1 23.37,49.5 37,73.11l32.53 -48.87c0,0 -0.01,-0.01 -0.01,-0.02z"/>
  <path class="fil1" d="M844.12 1749.29l-34.78 51.33c23.01,2.79 46.38,4.49 70.02,5.04l36.47 -54.68c-6.68,0.21 -13.39,0.34 -20.13,0.34 -17.36,0 -34.56,-0.69 -51.58,-2.03z"/>
  <path class="fil1" d="M670.11 1768.98c19.01,6.43 38.37,12.04 58.1,16.85l32.42 -48.57c-20.16,-4.26 -39.98,-9.42 -59.4,-15.49l-31.12 47.21z"/>
  <path class="fil1" d="M511.9 1626.15c-11.9,-8.69 -23.49,-17.79 -34.77,-27.26 -0.11,-0.1 -0.23,-0.21 -0.35,-0.3 -16.83,-14.16 -32.93,-29.17 -48.24,-44.94 -0.2,-0.21 -0.41,-0.42 -0.61,-0.63 -10.01,-10.34 -19.68,-21.02 -29,-32 -0.41,-0.5 -0.83,-0.99 -1.25,-1.48 -9.17,-10.88 -18,-22.07 -26.45,-33.55 -0.43,-0.59 -0.85,-1.16 -1.27,-1.75 -3.97,-5.43 -7.87,-10.92 -11.68,-16.47 -0.22,-0.33 -0.45,-0.65 -0.67,-0.97 -2.51,-3.68 -4.97,-7.4 -7.41,-11.12l-32.93 48.69c45.12,64.49 100.71,121.07 164.4,167.23 10.04,-14.97 20.22,-30.09 30.45,-45.28 -0.07,-0.06 -0.14,-0.11 -0.22,-0.17z"/>
  <path class="fil1" d="M303.07 1370.07c-0.1,-0.2 -0.2,-0.41 -0.3,-0.63 -0.89,-1.95 -1.75,-3.94 -2.62,-5.9 -0.2,-0.47 -0.4,-0.93 -0.6,-1.39 -1.74,-3.94 -3.44,-7.89 -5.1,-11.88 -0.51,-1.23 -1.01,-2.46 -1.51,-3.69 -0.14,-0.35 -0.29,-0.71 -0.43,-1.06 -0.27,-0.67 -0.55,-1.33 -0.82,-2 -1.79,-4.46 -3.53,-8.93 -5.23,-13.43 -0.43,-1.12 -0.87,-2.24 -1.28,-3.37 -2.4,-6.45 -4.7,-12.96 -6.89,-19.49 -0.34,-1.01 -0.65,-2.02 -0.98,-3.03 -0.97,-2.93 -1.94,-5.87 -2.86,-8.81l-37.9 57.03c10.07,26.34 21.67,51.86 34.75,76.58l34.84 -52.33c-1.03,-2.21 -2.07,-4.38 -3.07,-6.6z"/>
  <path class="fil4" d="M190.17 1100.34c0,-10.87 0.23,-21.7 0.77,-32.45 21.97,-32.06 44.26,-64.55 66.68,-97.19 0.01,-0.01 0.01,-0.02 0.01,-0.04 -22.45,32.69 -44.69,65.12 -66.69,97.22 -17.36,25.35 -34.61,50.54 -51.62,75.45 5.17,92.53 26.96,180.68 62.46,261.45l34.77 -52.36c-29.97,-78.29 -46.38,-163.27 -46.38,-252.08z"/>
  <path class="fil4" d="M481.68 1671.6c-9.76,14.54 -19.46,29 -29.03,43.3 7.36,5.32 14.82,10.5 22.37,15.55 11.17,7.48 22.61,14.58 34.19,21.47 23.34,13.87 47.49,26.53 72.36,37.88 19.24,8.79 38.86,16.89 58.92,24.07l29.6 -44.89c-68.08,-22.96 -131.48,-56 -188.41,-97.38z"/>
  <path class="fil2" d="M272.35 1288.47c-0.26,-0.87 -0.54,-1.73 -0.8,-2.6 -0.32,-1.07 -0.62,-2.15 -0.93,-3.23 -1.31,-4.48 -2.56,-9 -3.77,-13.51 -0.31,-1.14 -0.63,-2.27 -0.92,-3.41 -0.27,-1.03 -0.56,-2.05 -0.83,-3.09 -0.03,-0.1 -0.05,-0.22 -0.08,-0.32 -1.67,-6.53 -3.21,-13.09 -4.68,-19.7 -0.39,-1.73 -0.76,-3.46 -1.13,-5.2 -0.66,-3.07 -1.31,-6.13 -1.92,-9.23 -0.33,-1.64 -0.64,-3.29 -0.95,-4.95 -0.22,-1.12 -0.44,-2.25 -0.65,-3.37 -0.19,-1.02 -0.4,-2.03 -0.58,-3.06 -0.46,-2.55 -0.88,-5.12 -1.31,-7.69 -0.31,-1.84 -0.63,-3.7 -0.92,-5.56 -0.38,-2.38 -0.75,-4.76 -1.11,-7.16 -0.25,-1.67 -0.47,-3.36 -0.7,-5.04 -0.16,-1.12 -0.32,-2.24 -0.47,-3.37 -0.16,-1.17 -0.35,-2.33 -0.5,-3.51 -0.42,-3.26 -0.78,-6.54 -1.15,-9.82 -0.19,-1.66 -0.39,-3.32 -0.57,-4.98 -0.16,-1.45 -0.32,-2.91 -0.46,-4.37 -0.15,-1.49 -0.26,-3 -0.4,-4.5 -0.36,-3.95 -0.72,-7.91 -1.02,-11.89 -0.08,-1.08 -0.13,-2.16 -0.21,-3.24 -0.14,-2.01 -0.25,-4.02 -0.37,-6.03 -0.25,-4.05 -0.45,-8.12 -0.61,-12.2 -0.07,-1.46 -0.15,-2.9 -0.2,-4.36 -0.04,-1.07 -0.06,-2.14 -0.09,-3.21 -0.19,-6.49 -0.32,-13.01 -0.32,-19.54 0,-44.39 4.46,-87.73 12.92,-129.63 -22.42,32.64 -44.71,65.13 -66.68,97.19 -0.54,10.75 -0.77,21.58 -0.77,32.45 0,88.81 16.41,173.79 46.38,252.08l0 0 37.9 -57.03c-0.73,-2.31 -1.41,-4.62 -2.1,-6.92z"/>
  <path class="fil4" d="M728.22 1785.83l32.41 -48.57c0,0 0,0 0,0l-32.42 48.57 -30.63 45.91c25.89,7 52.31,12.66 79.21,16.86l32.52 -47.98c-27.54,-3.38 -54.63,-8.32 -81.09,-14.79z"/>
  <path class="fil4" d="M895.71 1805.83c-5.48,0 -10.91,-0.04 -16.35,-0.17l36.47 -54.68 0 0 -36.47 54.68 -33.79 50.63c16.57,1.1 33.28,1.63 50.13,1.63 13.67,0 27.25,-0.34 40.72,-1.06l37.48 -55.29c-25.66,2.83 -51.77,4.26 -78.19,4.26z"/>
  <path class="fil2" d="M915.83 1750.98l-36.47 54.68c5.44,0.13 10.87,0.17 16.35,0.17 26.42,0 52.53,-1.43 78.19,-4.26l0.01 0 41.53 -61.28c-32.42,6.03 -65.69,9.66 -99.61,10.69z"/>
  <path class="fil4" d="M271.31 1429.02l-32.53 48.87c14.44,25.08 30.28,49.27 47.43,72.41l31.06 -45.93c-16.85,-24.08 -32.21,-49.2 -45.96,-75.35z"/>
  <path class="fil2" d="M345.76 1448.8c-0.26,-0.41 -0.51,-0.82 -0.77,-1.24 -3.48,-5.49 -6.86,-11.05 -10.17,-16.65 -0.53,-0.89 -1.05,-1.77 -1.57,-2.65 -7,-11.99 -13.63,-24.22 -19.87,-36.68 -0.58,-1.15 -1.16,-2.32 -1.73,-3.48 -1.87,-3.79 -3.71,-7.61 -5.51,-11.43l-34.84 52.33c0,0.01 0.01,0.02 0.01,0.02 13.75,26.15 29.11,51.27 45.96,75.35 0,0 0,0 0,0l32.93 -48.69c-1.49,-2.3 -2.98,-4.57 -4.44,-6.88z"/>
  <path class="fil0" d="M897.98 1658.42c-0.75,0.02 -1.51,0.04 -2.28,0.04 -135.75,0 -260.23,-48.02 -357.24,-127.93 4.72,15.66 10.01,31.06 15.85,46.2 96.25,68.43 214.07,108.71 341.39,108.71 0.77,0 1.53,-0.02 2.28,-0.02l0 -27z"/>
  <path class="fil0" d="M892.64 1612.26c-0.37,2.92 -9.92,3.7 -9.78,2.64 0.68,-5.37 1.37,-10.73 2.06,-16.08 4.85,-37.74 9.69,-75.48 14.54,-113.22 0.3,-2.3 9.55,-4.57 9.79,-2.62 0.64,5.37 1.29,10.73 1.93,16.09 4.55,37.8 9.09,75.58 13.62,113.36 0.31,2.49 -9.57,4.41 -9.78,2.63 -0.65,-5.37 -1.29,-10.73 -1.93,-16.09 -3.03,-25.11 -6.04,-50.23 -9.06,-75.33 -3.8,29.54 -7.59,59.08 -11.39,88.62zm-26.03 1.42l0 -128.08c0,-2.76 9.79,-4.12 9.79,-2.62l0 128.07c0,2.76 -9.79,4.13 -9.79,2.63zm417.63 -900.04c-4.42,-4.41 -8.95,-8.71 -13.53,-12.97 -35.42,-5.97 -71.8,-9.14 -108.93,-9.14 -136.62,0 -263.39,42.12 -368.09,114.04l16.38 44.16c26.87,-9.1 55.66,-14.1 85.63,-14.11 4.23,0 8.44,0.13 12.61,0.32 17.99,-35.4 44.27,-63.19 78.43,-79.5 114.4,-54.64 273.14,39.3 354.58,209.8 17.34,36.34 29.75,73.22 37.48,109.28l21.03 0c3.46,0 5.49,10.53 1.16,10.53l-20.1 0c0.54,2.76 1.09,5.54 1.57,8.28l17.37 0c3.46,0 5.49,10.52 1.16,10.52l-16.93 0c0.39,2.73 0.78,5.47 1.12,8.19l14.65 0c3.46,0 5.49,10.52 1.16,10.52l-14.6 0c11.45,113.73 -25.7,212.58 -104.77,250.34 -71.57,34.17 -160.48,10.2 -236.97,-54.27 -42.5,28.66 -93.76,45.4 -148.95,45.4 -146.85,0 -265.92,-118.49 -265.93,-264.7 0.01,-36.81 7.57,-71.85 21.2,-103.69l-31.62 -14.11c-68.58,103.12 -108.56,226.88 -108.56,360 0,58.28 7.75,114.74 22.13,168.49 96.79,84.75 223.72,136.17 362.78,136.17 151.76,0 289.1,-61.21 388.54,-160.18 99.44,-98.99 160.92,-235.66 160.94,-386.68 -0.02,-151.03 -61.5,-287.7 -160.94,-386.69z"/>
  <path class="fil5" d="M1540.8 814.38c0,0 0,0.01 0.02,0.01l33.8 -50.66c-8.69,-17.44 -17.98,-34.44 -27.92,-51.05l-32.52 47.98c9.61,17.47 18.51,35.39 26.62,53.72z"/>
  <path class="fil5" d="M1464.27 682.69l30.65 -45.94c-13.92,-17.97 -28.65,-35.31 -44.09,-51.97l-29.61 44.89c15.19,16.94 29.57,34.64 43.05,53.02z"/>
  <path class="fil1" d="M1403.08 692.49c10.08,12.52 19.71,25.42 28.85,38.67l32.34 -48.47c-13.48,-18.38 -27.86,-36.08 -43.05,-53.02l-31.11 47.19c4.19,4.87 8.28,9.81 12.32,14.81 0.21,0.27 0.42,0.55 0.65,0.82z"/>
  <path class="fil6" d="M1449.88 758.63c-3.53,-5.7 -7.14,-11.34 -10.83,-16.92 -0.09,-0.16 -0.21,-0.32 -0.32,-0.49 -11.14,-16.81 -23.04,-33.07 -35.65,-48.73 -0.23,-0.27 -0.44,-0.55 -0.65,-0.82l-27.97 -33.82c-59.37,-38.16 -126.54,-66.63 -197.01,-83.94 69.89,37.13 131.52,87.63 181.43,148.09 31.43,9.98 61.84,22.23 91,36.64l0 0c0,0 0,-0.01 0,-0.01z"/>
  <path class="fil1" d="M1363.68 1875.6l-68.75 -131.29c-23.82,14.8 -48.56,28.3 -74.06,40.44l121.09 107.66c6.04,-6.88 13.39,-12.61 21.72,-16.81z"/>
  <path class="fil1" d="M1404.08 1996.44c-39.73,4.27 -75.4,-24.4 -79.83,-64.07l0 0 0 0c-0.27,2.5 -0.4,5.03 -0.43,7.58 0,0.07 -0.01,0.13 -0.01,0.2 -0.01,2.61 0.12,5.24 0.4,7.89 0.81,7.47 2.72,14.55 5.55,21.1 0.95,2.18 1.99,4.3 3.14,6.36 2.28,4.12 4.96,7.98 7.97,11.53 15.02,17.78 38.32,28.03 63.21,25.36 39.81,-4.28 68.63,-40.03 64.35,-79.86l-0.05 -0.28c-3.61,33.13 -29.8,60.47 -64.3,64.19z"/>
  <path class="fil7" d="M1359.09 1908.17c-1.67,18.93 17.78,37.11 43.42,40.6 25.64,3.49 47.78,-9.01 49.43,-27.95 1.66,-18.93 -17.79,-37.1 -43.42,-40.6 -25.64,-3.49 -47.77,9.02 -49.43,27.95z"/>
  <path class="fil0" d="M1408.24 1917.82c14.65,2.25 26.88,-2.93 27.3,-11.57 0.43,-8.65 -11.12,-17.46 -25.76,-19.71 -14.67,-2.25 -26.9,2.93 -27.31,11.57 -0.42,8.65 11.11,17.48 25.77,19.71z"/>
  <path class="fil1" d="M197.16 155.94c5.86,-3.57 11.84,-6.9 17.88,-10.04l0 0c1.52,-0.78 3.09,-1.49 4.63,-2.25l-9.08 -11.96c-15.41,-20.31 -44.63,-24.33 -64.94,-8.91l-0.67 0.5c-20.3,15.42 -24.31,44.63 -8.9,64.95l7.31 9.63c9.82,-9.6 20.31,-18.7 31.63,-27.06 7.23,-5.34 14.57,-10.32 22.14,-14.86z"/>
  <path class="fil1" d="M447.2 443.52c-23.41,21.85 -43.75,47.14 -60.87,74.51l9.72 12.82c23.41,-20.56 48.12,-39.68 73.96,-57.27l-22.81 -30.06z"/>
  <path class="fil8" d="M447.2 443.52l0 0 -13.49 -17.77 -75.24 55.57 14.12 18.62 13.74 18.09 0 0c17.12,-27.37 37.46,-52.66 60.87,-74.51z"/>
  <path class="fil5" d="M197.16 155.94c5.86,-3.57 11.84,-6.9 17.88,-10.04l0 0c-6.04,3.14 -12.02,6.47 -17.88,10.04 -7.57,4.54 -14.91,9.52 -22.14,14.86 -11.32,8.36 -21.81,17.46 -31.63,27.06 -115.92,113.37 -127.03,308.21 -20.97,457.78l41.91 -30.95c-106.36,-155.14 -91.13,-356.07 32.83,-468.75z"/>
  <path class="fil5" d="M228.47 577.34l130 -96.02 0 0 75.24 -55.57 158.94 -117.39c-10.72,-12.92 -22.01,-25.08 -33.73,-36.54 -11.86,18.37 -38.98,20.65 -61.06,15.66 -39.18,-8.86 -76.21,-32.61 -114.06,-44.58 -17.96,-5.69 -36.11,-8.71 -54.76,-6.24 -13.56,1.81 -26.72,6.56 -40.47,6.29 -23,-0.48 -40.27,-16.95 -25.76,-37.74 11.36,-16.27 29.67,-26.75 47.55,-34.02 16.12,-6.54 33.05,-10.95 50.31,-13.45 -44.8,-11.95 -90.71,-16.35 -135.7,-12.74 -93.93,115.6 -93.2,291.33 3.5,432.34z"/>
  <path class="fil1" d="M224.97 145c44.99,-3.61 90.9,0.79 135.7,12.74 56.26,-8.12 116.24,4.96 164.83,37.7 12.22,8.25 24,17.93 31.55,30.75 7.55,12.84 10.2,29.38 3.78,42.33 -0.58,1.17 -1.23,2.25 -1.91,3.3 11.72,11.46 23.01,23.62 33.73,36.54l0 0 61.23 -45.22c-106.54,-138.57 -283.79,-187.57 -423.53,-124.69 0,0 0,0 0,0 -1.85,2.14 -3.6,4.36 -5.38,6.55z"/>
  <path class="fil4" d="M224.97 145c1.78,-2.19 3.53,-4.41 5.38,-6.55 0,0 0,0 0,0 -3.6,1.6 -7.13,3.43 -10.68,5.2 -1.54,0.76 -3.11,1.47 -4.63,2.25 -6.04,3.14 -12.02,6.47 -17.88,10.04 -123.96,112.68 -139.19,313.61 -32.83,468.75l0 0 25.89 -19.12 38.25 -28.23c-96.7,-141.01 -97.43,-316.74 -3.5,-432.34z"/>
  <path class="fil0" d="M557.05 226.19c-7.55,-12.82 -19.33,-22.5 -31.55,-30.75 -48.59,-32.74 -108.57,-45.82 -164.83,-37.7 -17.26,2.5 -34.19,6.91 -50.31,13.45 -17.88,7.27 -36.19,17.75 -47.55,34.02 -14.51,20.79 2.76,37.26 25.76,37.74 13.75,0.27 26.91,-4.48 40.47,-6.29 18.65,-2.47 36.8,0.55 54.76,6.24 37.85,11.97 74.88,35.72 114.06,44.58 22.08,4.99 49.2,2.71 61.06,-15.66 0.68,-1.05 1.33,-2.13 1.91,-3.3 6.42,-12.95 3.77,-29.49 -3.78,-42.33z"/>
  <path class="fil4" d="M154.81 126.37c-2.15,0.56 -4.01,1.94 -5.68,3.48 -8.67,7.92 -13.25,20.59 -11.88,32.8 0.36,3.19 1.17,6.59 3.08,9.18 2.45,3.32 5.51,1.41 6.47,-2.22 0.58,-2.15 0.4,-4.46 0.67,-6.69 0.36,-3.07 1.51,-5.8 3.03,-8.35 3.2,-5.4 8.09,-10.09 10.89,-15.84 1.67,-3.43 2.39,-8.16 -0.3,-10.89 -1.63,-1.65 -4.12,-2.04 -6.28,-1.47z"/>
  <path class="fil1" d="M933.92 266.49c-31.76,5.39 -62.54,16.43 -90.21,32.61l0 45.51c17.19,-1.16 34.51,-1.86 51.99,-1.86 3.82,0 7.69,0.05 11.51,0.1 8.94,0.11 17.83,0.45 26.71,0.9l0 -77.26z"/>
  <path class="fil8" d="M933.92 256.25l-90.21 0 0 42.85c27.67,-16.18 58.45,-27.22 90.21,-32.61l0 -10.24z"/>
  <path class="fil5" d="M967.04 256.25c29.62,0 53.86,-24.23 53.86,-53.85l0 0c0,-29.62 -24.24,-53.87 -53.86,-53.87l-156.47 0c-29.62,0 -53.86,24.25 -53.86,53.87l0 0c0,29.62 24.24,53.85 53.86,53.85l156.47 0z"/>
  <path class="fil4" d="M932.27 217.99c15.23,0 27.69,-12.45 27.69,-27.69 0,-15.24 -12.46,-27.69 -27.69,-27.69l-126.94 0c-15.23,0 -27.7,12.45 -27.7,27.69 0,15.24 12.47,27.69 27.7,27.69l126.94 0z"/>
  <path class="fil0" d="M865.3 194.87c6.61,0 12,-5.4 12,-12 0,-6.6 -5.39,-12 -12,-12l-55.02 0c-6.6,0 -12,5.4 -12,12 0,6.6 5.4,12 12,12l55.02 0z"/>
  <path class="fil1" d="M1621.06 169.71c11.32,8.36 21.82,17.44 31.63,27.06l7.3 -9.64c15.41,-20.31 11.41,-49.54 -8.9,-64.94l-0.65 -0.51c-20.32,-15.41 -49.55,-11.39 -64.95,8.9l-9.07 11.97c7.61,3.79 15.15,7.81 22.5,12.3 7.57,4.54 14.91,9.5 22.14,14.86z"/>
  <path class="fil1" d="M1348.88 442.42l-24.95 32.87c25.77,17.69 50.38,36.94 73.71,57.61l12.12 -15.97c-17.13,-27.38 -37.48,-52.66 -60.88,-74.51z"/>
  <path class="fil8" d="M1409.76 516.93l27.86 -36.72 -75.25 -55.57 -13.49 17.78 0 0c23.4,21.85 43.75,47.13 60.88,74.51z"/>
  <path class="fil5" d="M1567.61 576.23c96.71,-140.99 97.42,-316.73 3.51,-432.32 -45,-3.63 -90.92,0.77 -135.71,12.74 17.26,2.48 34.18,6.9 50.31,13.45 17.88,7.27 36.19,17.73 47.55,34.01 14.52,20.78 -2.76,37.25 -25.76,37.72 -13.74,0.28 -26.9,-4.47 -40.47,-6.27 -18.66,-2.48 -36.79,0.54 -54.75,6.23 -37.85,11.97 -74.89,35.72 -114.07,44.57 -22.09,5 -49.2,2.72 -61.06,-15.64 -11.72,11.46 -23.01,23.61 -33.73,36.53l158.94 117.39 75.25 55.57 0 0 129.99 96.02z"/>
  <path class="fil5" d="M1631.76 623.58l41.9 30.96c106.06,-149.58 94.95,-344.4 -20.97,-457.77 -9.81,-9.62 -20.31,-18.7 -31.63,-27.06 -7.23,-5.36 -14.57,-10.32 -22.14,-14.86 123.95,112.67 139.19,313.59 32.84,468.73z"/>
  <path class="fil1" d="M1237.16 270.72c-0.68,-1.06 -1.33,-2.14 -1.91,-3.3 -6.42,-12.96 -3.77,-29.49 3.78,-42.32 7.54,-12.84 19.33,-22.52 31.54,-30.75 48.59,-32.74 108.59,-45.82 164.84,-37.7 44.79,-11.97 90.71,-16.37 135.71,-12.74 -1.79,-2.19 -3.54,-4.41 -5.38,-6.57 -139.75,-62.86 -317,-13.86 -423.54,124.69l61.23 45.22 0 0c10.72,-12.92 22.01,-25.07 33.73,-36.53z"/>
  <path class="fil4" d="M1567.61 576.23l64.15 47.35c106.35,-155.14 91.11,-356.06 -32.84,-468.73 -7.35,-4.49 -14.89,-8.51 -22.5,-12.3 -3.56,-1.78 -7.09,-3.59 -10.68,-5.21 1.84,2.16 3.59,4.38 5.38,6.57 93.91,115.59 93.2,291.33 -3.51,432.32z"/>
  <path class="fil0" d="M1270.57 194.35c-12.21,8.23 -24,17.91 -31.54,30.75 -7.55,12.83 -10.2,29.36 -3.78,42.32 0.58,1.16 1.23,2.24 1.91,3.3 11.86,18.36 38.97,20.64 61.06,15.64 39.18,-8.85 76.22,-32.6 114.07,-44.57 17.96,-5.69 36.09,-8.71 54.75,-6.23 13.57,1.8 26.73,6.55 40.47,6.27 23,-0.47 40.28,-16.94 25.76,-37.72 -11.36,-16.28 -29.67,-26.74 -47.55,-34.01 -16.13,-6.55 -33.05,-10.97 -50.31,-13.45 -56.25,-8.12 -116.25,4.96 -164.84,37.7z"/>
  <path class="fil4" d="M1645.59 153.46c1.52,2.56 2.66,5.28 3.03,8.35 0.27,2.23 0.09,4.55 0.66,6.71 0.96,3.61 4.01,5.53 6.48,2.22 1.89,-2.6 2.71,-6.01 3.07,-9.2 1.37,-12.21 -3.22,-24.87 -11.89,-32.8 -1.65,-1.52 -3.51,-2.91 -5.66,-3.48 -2.18,-0.55 -4.66,-0.16 -6.29,1.49 -2.7,2.72 -1.98,7.44 -0.31,10.87 2.82,5.77 7.69,10.45 10.91,15.84z"/>
  <path class="fil1" d="M444.45 1875.6c8.33,4.2 15.67,9.93 21.73,16.81l115.39 -102.61c-24.87,-11.35 -49.02,-24.01 -72.36,-37.88l-64.76 123.68z"/>
  <path class="fil5" d="M444.45 1875.6l64.76 -123.68c-11.58,-6.89 -23.02,-13.99 -34.19,-21.47l-43.46 140.14c-3.87,-1.1 -7.85,-1.95 -11.99,-2.41 -39.72,-4.26 -75.39,24.4 -79.81,64.07 3.61,33.13 29.8,60.47 64.3,64.19 39.73,4.27 75.39,-24.4 79.81,-64.07 -1.64,-15.1 -8.01,-28.95 -17.69,-39.96 -6.06,-6.88 -13.4,-12.61 -21.73,-16.81z"/>
  <path class="fil1" d="M404.06 1996.44c-34.5,-3.72 -60.69,-31.06 -64.3,-64.19l0 0 -0.05 0.28c-0.26,2.5 -0.4,4.97 -0.42,7.42 -0.09,14.69 4.29,28.58 11.95,40.22 3.84,5.81 8.49,11.06 13.83,15.57 3.56,3 7.42,5.67 11.53,7.97 8.24,4.57 17.5,7.61 27.46,8.68 24.89,2.67 48.19,-7.58 63.21,-25.36 3,-3.55 5.68,-7.41 7.96,-11.53 1.15,-2.06 2.2,-4.18 3.14,-6.36 2.84,-6.55 4.75,-13.63 5.55,-21.1 0.28,-2.65 0.41,-5.28 0.4,-7.88 0,-0.08 -0.01,-0.16 -0.01,-0.24 -0.02,-2.54 -0.16,-5.05 -0.44,-7.55l0 0 0 0c-4.42,39.67 -40.08,68.34 -79.81,64.07z"/>
  <path class="fil7" d="M399.61 1880.22c-25.64,3.5 -45.08,21.67 -43.42,40.6 1.66,18.94 23.79,31.44 49.43,27.95 25.64,-3.49 45.08,-21.67 43.42,-40.6 -1.66,-18.93 -23.8,-31.44 -49.43,-27.95z"/>
  <path class="fil0" d="M425.67 1898.11c-0.43,-8.64 -12.65,-13.82 -27.31,-11.57 -14.66,2.25 -26.2,11.06 -25.78,19.71 0.43,8.64 12.65,13.82 27.31,11.57 14.66,-2.23 26.2,-11.06 25.78,-19.71z"/>
  <path class="fil4" d="M1514.18 760.66l32.52 -47.98c-15.7,-26.42 -33.04,-51.73 -51.78,-75.93l-30.65 45.94 -32.34 48.47 0 0.01 32.34 -48.47c18.3,24.81 34.97,50.83 49.88,77.93l0.03 0.03z"/>
  <path class="fil2" d="M760.63 1737.26l-32.41 48.57c26.46,6.47 53.55,11.41 81.09,14.79 0.01,0 0.02,0 0.03,0l34.78 -51.33c-28.38,-2.22 -56.24,-6.29 -83.49,-12.03z"/>
  <path class="fil4" d="M1576.07 913.03l37.53 -55.36c-10.91,-32.36 -24.01,-63.75 -38.98,-93.94l-33.8 50.66c14.11,31.71 25.91,64.69 35.25,98.64z"/>
  <path class="fil0" d="M903.04 847.07c-2.44,-0.07 -4.88,-0.18 -7.34,-0.18 -28.6,0 -56.06,4.76 -81.71,13.41l75.7 204.1c0.65,-0.14 1.27,-0.36 1.94,-0.46 -19.02,-80.78 -14.48,-158.05 11.41,-216.87z"/>
  <path class="fil0" d="M715.62 1279.53c46.1,45.87 109.73,74.23 180.08,74.23 51.8,0 99.93,-15.42 140.13,-41.85 -42.25,-37.83 -80.27,-88.11 -108.79,-147.82 -2.58,-5.41 -5.06,-10.84 -7.43,-16.28 -3.99,1.64 -8.31,2.68 -12.83,2.92 -0.71,0.05 -1.41,0.06 -2.13,0.06 -0.88,0 -1.76,-0.03 -2.61,-0.08 -1.22,-0.08 -2.42,-0.22 -3.59,-0.41 -1.4,-0.21 -2.78,-0.51 -4.14,-0.88 -1.01,-0.27 -2.01,-0.59 -2.98,-0.93 -3.52,-1.26 -6.81,-3.01 -9.79,-5.16 -0.66,-0.48 -1.3,-0.97 -1.92,-1.48 -1.19,-0.96 -2.31,-1.99 -3.36,-3.09 -1.23,-1.26 -2.37,-2.6 -3.41,-4.03 -0.7,-0.92 -1.31,-1.91 -1.92,-2.92 -0.48,-0.45 -1,-0.87 -1.45,-1.34 -1.23,-1.26 -2.37,-2.61 -3.41,-4.02 -0.9,-1.21 -1.73,-2.47 -2.47,-3.78 -0.73,-1.23 -1.37,-2.51 -1.94,-3.82 -0.56,-1.26 -1.02,-2.56 -1.45,-3.89 -0.02,-0.1 -0.06,-0.21 -0.08,-0.31 -0.41,-1.29 -0.73,-2.62 -1,-3.97l0 0 0 0c-0.35,-1.79 -0.62,-3.6 -0.72,-5.47 -0.05,-0.74 -0.07,-1.49 -0.07,-2.24 0,-4.5 0.76,-8.81 2.15,-12.84l-199.24 -88.9c-13,30.44 -20.21,63.92 -20.21,99.1 0,69.99 28.49,133.31 74.58,179.2z"/>
  <path class="fil0" d="M668.47 985.95l200.95 89.66c1.49,-1.54 3.1,-2.98 4.81,-4.26l-76.08 -205.16c-31.09,12.84 -59.09,31.61 -82.53,54.94 -18.98,18.89 -34.9,40.77 -47.15,64.82z"/>
  <path class="fil0" d="M1299.16 712.76c96.15,99.13 155.73,233.6 157.2,381.94l27.17 0c-1.37,-144.89 -55.61,-277.15 -144.49,-378.65 -11.37,-3.21 -22.86,-6.12 -34.46,-8.72l-5.42 5.43z"/>
  <path class="fil0" d="M1291.24 704.74l0.24 -0.24c-0.2,-0.04 -0.39,-0.07 -0.6,-0.11 0.13,0.12 0.25,0.23 0.36,0.35z"/>
  <path class="fil0" d="M794.23 855.63l-14.82 -39.97c-58.13,42.26 -109,93.89 -150.37,152.69l29.13 13c28.63,-56.52 76.96,-101.41 136.06,-125.72z"/>
  <path class="fil6" d="M392.48 1135.43c-3.66,0 -5.79,-10.52 -1.23,-10.52l128.07 0c3.67,0 5.79,10.52 1.23,10.52l-128.07 0zm-2.02 -29.37c5.29,-1.48 10.57,-2.97 15.86,-4.45 10.11,-2.83 20.22,-5.66 30.33,-8.5 -14.76,-4.13 -29.52,-8.27 -44.28,-12.42 -4.17,-1.16 -5.51,-11.84 -1,-10.57 5.28,1.48 10.56,2.96 15.85,4.44 15.93,4.48 31.87,8.93 47.8,13.4 21.17,-5.93 42.34,-11.86 63.51,-17.8 4.79,-1.34 7.6,9.16 2.81,10.5l-15.85 4.44c-10.11,2.84 -20.22,5.68 -30.34,8.51 14.76,4.13 29.53,8.27 44.29,12.4 4.17,1.18 5.5,11.85 1,10.58 -5.28,-1.48 -10.57,-2.95 -15.85,-4.43 -15.94,-4.47 -31.87,-8.94 -47.81,-13.4 -21.17,5.92 -42.34,11.86 -63.51,17.8 -4.78,1.34 -7.59,-9.16 -2.81,-10.5zm228.89 -123.53l-41.82 -18.66 -32.75 13.67 -82.3 -76.09 109.18 11.84 12.86 35.2 44.52 19.86c41.37,-58.8 92.24,-110.43 150.37,-152.69l-31.94 -86.12 -39.94 -17.75 -1.86 -74.81c-199.66,111.19 -334.75,324.35 -334.75,569.1 0,22.84 1.21,45.39 3.51,67.62 27.28,81.27 73.19,154.05 132.72,213.31 8.32,8.28 16.93,16.27 25.77,24.01 -14.38,-53.75 -22.13,-110.21 -22.13,-168.49 0,-133.12 39.98,-256.88 108.56,-360z"/>
  <path class="fil6" d="M1016.18 555.16c105.86,23.07 200.53,75.88 274.7,149.23 0.21,0.04 0.4,0.07 0.6,0.11l18.91 -18.91c-51.07,-50.58 -111.43,-91.84 -178.3,-121.11 -35.82,-6.12 -72.61,-9.4 -110.16,-9.4 -1.93,0 -3.83,0.06 -5.75,0.08z"/>
  <path class="fil6" d="M481.4 1515.44l19.15 -19.15c-49.93,-49.35 -90.55,-108.01 -119.07,-173.13 6.8,37.4 16.77,73.68 29.67,108.55 20.42,29.51 43.45,57.09 68.83,82.34 0.47,0.48 0.95,0.93 1.42,1.39z"/>
  <path class="fil6" d="M538.46 1530.53c-10.26,-8.44 -20.21,-17.25 -29.84,-26.38l-19.14 19.14c20.28,19.3 41.95,37.16 64.83,53.44 -5.84,-15.14 -11.13,-30.54 -15.85,-46.2z"/>
  <path class="fil6" d="M1304.58 707.33c11.6,2.6 23.09,5.51 34.46,8.72 -6.72,-7.66 -13.64,-15.13 -20.74,-22.44l-13.72 13.72z"/>
  <path class="fil6" d="M940.37 725.47c0,2.79 -9.78,4.16 -9.78,2.63l0 -128.07c0,-2.79 9.78,-4.16 9.78,-2.63l0 128.07zm-31.2 1.64l0 -128.07c0,-4.67 9.96,-5.96 9.96,-0.64l0 128.06c0,4.67 -9.96,5.96 -9.96,0.65zm-22.23 0.99c-1.5,-5.34 -3,-10.69 -4.49,-16.03 -2.94,-10.45 -5.86,-20.9 -8.8,-31.35l-12.77 45.61c-1.11,3.92 -11.07,5.15 -9.88,0.92 1.5,-5.35 2.99,-10.69 4.49,-16.03 4.45,-15.88 8.91,-31.77 13.36,-47.66 -5.94,-21.17 -11.87,-42.35 -17.81,-63.53 -0.96,-3.41 8.83,-6.04 9.79,-2.63 1.5,5.34 2.99,10.68 4.49,16.02 2.93,10.45 5.86,20.91 8.8,31.37l12.78 -45.61c1.09,-3.93 11.06,-5.16 9.88,-0.93 -1.51,5.34 -3.01,10.68 -4.5,16.02 -4.46,15.9 -8.9,31.78 -13.36,47.67 5.93,21.18 11.87,42.36 17.81,63.53 0.96,3.41 -8.84,6.04 -9.79,2.63zm-152.47 -106.23l49.03 62.68 -19.93 39.82 30.12 81.2c104.7,-71.92 231.47,-114.04 368.09,-114.04 37.13,0 73.51,3.17 108.93,9.14 -82.52,-76.73 -188.77,-128.45 -306.64,-142.99 -81.82,7.2 -159.29,29.53 -229.6,64.19z"/>
  <path class="fil3" d="M705.67 636.98l-1.23 -49.46c-74.8,27.65 -141.92,71.02 -197.29,126.12 -99.44,98.99 -160.92,235.66 -160.93,386.69 0.01,60.61 9.93,118.89 28.21,173.37 -2.3,-22.23 -3.51,-44.78 -3.51,-67.62 0,-244.75 135.09,-457.91 334.75,-569.1z"/>
  <path class="fil3" d="M734.47 621.87c70.31,-34.66 147.78,-56.99 229.6,-64.19 -22.41,-2.78 -45.21,-4.22 -68.37,-4.22 -66.35,0 -129.94,11.71 -188.82,33.15l27.59 35.26z"/>
  <path class="fil3" d="M508.19 696.93c100.69,-95.85 237.19,-154.73 387.51,-154.73 0.77,0 1.53,0.03 2.28,0.03l0 -26.99c-0.75,0 -1.51,-0.02 -2.28,-0.02 -157.81,0 -301.05,61.87 -406.66,162.57l19.15 19.14z"/>
  <path class="fil3" d="M335.03 1094.7c1.52,-152.35 64.32,-290.08 165.08,-389.92l-19.15 -19.14c-0.32,0.32 -0.66,0.63 -0.98,0.96 -105.16,104.67 -170.6,248.75 -172.11,408.1l27.16 0z"/>
  <path class="fil3" d="M381.48 1323.16c-29.19,-66.64 -45.68,-140.04 -46.45,-217.19l-27.16 0c1.15,120.88 39.1,232.97 103.28,325.74 -12.9,-34.87 -22.87,-71.15 -29.67,-108.55z"/>
  <path class="fil3" d="M909.25 542.36c36.62,0.86 72.36,5.26 106.93,12.8 1.92,-0.02 3.82,-0.08 5.75,-0.08 37.55,0 74.34,3.28 110.16,9.4 -68.44,-29.96 -143.69,-47.32 -222.84,-49.1l0 26.98z"/>
  <path class="fil9" d="M1161.63 1100.33c0,91.25 -46.4,171.71 -116.98,219.3 76.49,64.47 165.4,88.44 236.97,54.27 79.07,-37.76 116.22,-136.61 104.77,-250.34l-106.79 0c-3.46,0 -5.48,-10.52 -1.15,-10.52l106.73 0c-0.34,-2.72 -0.73,-5.46 -1.12,-8.19l-104.46 0c-3.46,0 -5.48,-10.52 -1.15,-10.52l104.01 0c-0.48,-2.74 -1.03,-5.52 -1.57,-8.28l-101.29 0c-3.46,0 -5.48,-10.53 -1.15,-10.53l100.35 0c-7.73,-36.06 -20.14,-72.94 -37.48,-109.28 -81.44,-170.5 -240.18,-264.44 -354.58,-209.8 -34.16,16.31 -60.44,44.1 -78.43,79.5 140.99,6.56 253.32,122.38 253.32,264.39z"/>
  <path class="fil9" d="M931.72 1082.57c0.63,0.6 1.29,1.15 1.89,1.79 0.81,0.87 1.58,1.78 2.3,2.71 0.99,1.27 1.89,2.59 2.7,3.97 0.52,0.86 1.01,1.76 1.46,2.66 0.78,1.58 1.47,3.22 2.03,4.9 1.34,3.97 2.08,8.24 2.08,12.66 0,16.53 -10.17,30.64 -24.57,36.55 2.37,5.44 4.85,10.87 7.43,16.28 28.52,59.71 66.54,109.99 108.79,147.82 14.4,-9.46 27.79,-20.29 39.95,-32.38 46.1,-45.89 74.58,-109.21 74.58,-179.2 0,-70 -28.48,-133.32 -74.58,-179.2 -44.49,-44.27 -105.32,-72.15 -172.74,-74.06 -25.89,58.82 -30.43,136.09 -11.41,216.87 2.03,-0.33 4.11,-0.5 6.24,-0.5l0.6 0c1.47,0.03 2.92,0.13 4.34,0.31 1.71,0.21 3.38,0.54 5.01,0.96 1.53,0.39 3.02,0.88 4.48,1.46 1.59,0.62 3.14,1.35 4.63,2.17 0.74,0.41 1.46,0.84 2.17,1.29 2.85,1.82 5.45,3.99 7.73,6.45 0.81,0.87 1.58,1.77 2.3,2.71 0.44,0.56 0.8,1.18 1.21,1.77 0,-0.05 -0.01,-0.09 -0.03,-0.14 0.5,0.7 0.96,1.41 1.41,2.15z"/>
  <path class="fil10" d="M895.7 846.89c2.46,0 4.9,0.11 7.34,0.18 67.42,1.91 128.25,29.79 172.74,74.06 46.1,45.88 74.58,109.2 74.58,179.2 0,69.99 -28.48,133.31 -74.58,179.2 -12.16,12.09 -25.55,22.92 -39.95,32.38 -40.2,26.43 -88.33,41.85 -140.13,41.85 -70.35,0 -133.98,-28.36 -180.08,-74.23 -46.09,-45.89 -74.58,-109.21 -74.58,-179.2 0,-35.18 7.21,-68.66 20.21,-99.1l-10.28 -4.59c-13.63,31.84 -21.19,66.88 -21.2,103.69 0.01,146.21 119.08,264.7 265.93,264.7 55.19,0 106.45,-16.74 148.95,-45.4 70.58,-47.59 116.98,-128.05 116.98,-219.3 0,-142.01 -112.33,-257.83 -253.32,-264.39 -4.17,-0.19 -8.38,-0.32 -12.61,-0.32 -29.97,0.01 -58.76,5.01 -85.63,14.11l3.92 10.57c25.65,-8.65 53.11,-13.41 81.71,-13.41z"/>
  <path class="fil10" d="M658.17 981.35l10.3 4.6c12.25,-24.05 28.17,-45.93 47.15,-64.82 23.44,-23.33 51.44,-42.1 82.53,-54.94l-3.92 -10.56c-59.1,24.31 -107.43,69.2 -136.06,125.72z"/>
  <path class="fil10" d="M1483.53 1094.7l-27.17 0c-1.47,-148.34 -61.05,-282.81 -157.2,-381.94l19.14 -19.15c7.1,7.31 14.02,14.78 20.74,22.44 88.88,101.5 143.12,233.76 144.49,378.65zm-574.28 590.57l0 -26.98c148.98,-3.52 283.57,-64.87 381.99,-162.37l19.15 19.14c-103.35,102.35 -244.66,166.69 -401.14,170.21zm-354.94 -108.54c-22.88,-16.28 -44.55,-34.14 -64.83,-53.44l19.14 -19.14c9.63,9.13 19.58,17.94 29.84,26.38 97.01,79.91 221.49,127.93 357.24,127.93 0.77,0 1.53,-0.02 2.28,-0.04l0 27c-0.75,0 -1.51,0.02 -2.28,0.02 -127.32,0 -245.14,-40.28 -341.39,-108.71zm-143.16 -145.02c-64.18,-92.77 -102.13,-204.86 -103.28,-325.74l27.16 0c0.77,77.15 17.26,150.55 46.45,217.19 28.52,65.12 69.14,123.78 119.07,173.13l-19.15 19.15c-0.47,-0.46 -0.95,-0.91 -1.42,-1.39 -25.38,-25.25 -48.41,-52.83 -68.83,-82.34zm68.83 -745.11c0.32,-0.33 0.66,-0.64 0.98,-0.96l19.15 19.14c-100.76,99.84 -163.56,237.57 -165.08,389.92l-27.16 0c1.51,-159.35 66.95,-303.43 172.11,-408.1zm415.72 -171.38c0.77,0 1.53,0.02 2.28,0.02l0 26.99c-0.75,0 -1.51,-0.03 -2.28,-0.03 -150.32,0 -286.82,58.88 -387.51,154.73l-19.15 -19.14c105.61,-100.7 248.85,-162.57 406.66,-162.57zm388.54 971.79c-99.44,98.97 -236.78,160.18 -388.54,160.18 -139.06,0 -265.99,-51.42 -362.78,-136.17 -8.84,-7.74 -17.45,-15.73 -25.77,-24.01 -59.53,-59.26 -105.44,-132.04 -132.72,-213.31 -18.28,-54.48 -28.2,-112.76 -28.21,-173.37 0.01,-151.03 61.49,-287.7 160.93,-386.69 55.37,-55.1 122.49,-98.47 197.29,-126.12l-0.1 -4.18 2.54 3.27c58.88,-21.44 122.47,-33.15 188.82,-33.15 23.16,0 45.96,1.44 68.37,4.22 117.87,14.54 224.12,66.26 306.64,142.99 4.58,4.26 9.11,8.56 13.53,12.97 99.44,98.99 160.92,235.66 160.94,386.69 -0.02,151.02 -61.5,287.69 -160.94,386.68zm14.92 0.88c96.15,-99.12 155.73,-233.58 157.2,-381.92l27.17 0c-1.48,155.82 -64.12,297.02 -165.23,401.07l-19.14 -19.15zm-167.07 -923.41c66.87,29.27 127.23,70.53 178.3,121.11l-18.91 18.91 -0.24 0.24c-0.11,-0.12 -0.23,-0.23 -0.36,-0.35 -74.17,-73.35 -168.84,-126.16 -274.7,-149.23 -34.57,-7.54 -70.31,-11.94 -106.93,-12.8l0 -26.98c79.15,1.78 154.4,19.14 222.84,49.1zm45.36 9.43c-83.99,-44.63 -179.9,-69.96 -281.75,-69.96 -330.89,0 -599.16,266.98 -599.17,596.38 0,141.19 49.32,270.87 131.7,373.01 38.06,47.2 83.16,88.52 133.75,122.35 95.38,63.78 210.18,101.02 333.72,101.02 330.89,0 599.17,-266.99 599.17,-596.38 0,-143.63 -51.02,-275.39 -135.99,-378.33 -49.91,-60.46 -111.54,-110.96 -181.43,-148.09z"/>
  <path class="fil10" d="M878.92 661.94c4.46,-15.89 8.9,-31.77 13.36,-47.67 1.49,-5.34 2.99,-10.68 4.5,-16.02 1.18,-4.23 -8.79,-3 -9.88,0.93l-12.78 45.61c-2.94,-10.46 -5.87,-20.92 -8.8,-31.37 -1.5,-5.34 -2.99,-10.68 -4.49,-16.02 -0.96,-3.41 -10.75,-0.78 -9.79,2.63 5.94,21.18 11.87,42.36 17.81,63.53 -4.45,15.89 -8.91,31.78 -13.36,47.66 -1.5,5.34 -2.99,10.68 -4.49,16.03 -1.19,4.23 8.77,3 9.88,-0.92l12.77 -45.61c2.94,10.45 5.86,20.9 8.8,31.35 1.49,5.34 2.99,10.69 4.49,16.03 0.95,3.41 10.75,0.78 9.79,-2.63 -5.94,-21.17 -11.88,-42.35 -17.81,-63.53z"/>
  <path class="fil10" d="M919.13 598.4c0,-5.32 -9.96,-4.03 -9.96,0.64l0 128.07c0,5.31 9.96,4.02 9.96,-0.65l0 -128.06z"/>
  <path class="fil10" d="M930.59 600.03l0 128.07c0,1.53 9.78,0.16 9.78,-2.63l0 -128.07c0,-1.53 -9.78,-0.16 -9.78,2.63z"/>
  <path class="fil10" d="M456.78 1098.76c15.94,4.46 31.87,8.93 47.81,13.4 5.28,1.48 10.57,2.95 15.85,4.43 4.5,1.27 3.17,-9.4 -1,-10.58 -14.76,-4.13 -29.53,-8.27 -44.29,-12.4 10.12,-2.83 20.23,-5.67 30.34,-8.51l15.85 -4.44c4.79,-1.34 1.98,-11.84 -2.81,-10.5 -21.17,5.94 -42.34,11.87 -63.51,17.8 -15.93,-4.47 -31.87,-8.92 -47.8,-13.4 -5.29,-1.48 -10.57,-2.96 -15.85,-4.44 -4.51,-1.27 -3.17,9.41 1,10.57 14.76,4.15 29.52,8.29 44.28,12.42 -10.11,2.84 -20.22,5.67 -30.33,8.5 -5.29,1.48 -10.57,2.97 -15.86,4.45 -4.78,1.34 -1.97,11.84 2.81,10.5 21.17,-5.94 42.34,-11.88 63.51,-17.8z"/>
  <path class="fil10" d="M520.55 1135.43c4.56,0 2.44,-10.52 -1.23,-10.52l-128.07 0c-4.56,0 -2.43,10.52 1.23,10.52l128.07 0z"/>
  <path class="fil10" d="M915.02 1615.06c0.21,1.78 10.09,-0.14 9.78,-2.63 -4.53,-37.78 -9.07,-75.56 -13.62,-113.36 -0.64,-5.36 -1.29,-10.72 -1.93,-16.09 -0.24,-1.95 -9.49,0.32 -9.79,2.62 -4.85,37.74 -9.69,75.48 -14.54,113.22 -0.69,5.35 -1.38,10.71 -2.06,16.08 -0.14,1.06 9.41,0.28 9.78,-2.64 3.8,-29.54 7.59,-59.08 11.39,-88.62 3.02,25.1 6.03,50.22 9.06,75.33 0.64,5.36 1.28,10.72 1.93,16.09z"/>
  <path class="fil10" d="M876.4 1482.98c0,-1.5 -9.79,-0.14 -9.79,2.62l0 128.08c0,1.5 9.79,0.13 9.79,-2.63l0 -128.07z"/>
  <path class="fil10" d="M1278.45 1075.52c-4.33,0 -2.31,10.53 1.15,10.53l121.39 0c4.33,0 2.3,-10.53 -1.16,-10.53l-121.38 0z"/>
  <path class="fil10" d="M1278.45 1094.33c-4.33,0 -2.31,10.52 1.15,10.52l121.39 0c4.33,0 2.3,-10.52 -1.16,-10.52l-121.38 0z"/>
  <path class="fil10" d="M1278.45 1113.04c-4.33,0 -2.31,10.52 1.15,10.52l121.39 0c4.33,0 2.3,-10.52 -1.16,-10.52l-121.38 0z"/>
  <path class="fil11" d="M944.18 1111.26c0,-4.42 -0.74,-8.69 -2.08,-12.66 -0.56,-1.68 -1.25,-3.32 -2.03,-4.9 -0.45,-0.9 -0.94,-1.8 -1.46,-2.66 -0.81,-1.38 -1.71,-2.7 -2.7,-3.97 -0.72,-0.93 -1.49,-1.84 -2.3,-2.71 -0.6,-0.64 -1.26,-1.19 -1.89,-1.79 0.03,0.05 0.07,0.11 0.11,0.18 0.52,0.86 1,1.75 1.45,2.66 0.78,1.57 1.47,3.21 2.04,4.9 1.34,3.98 2.07,8.23 2.07,12.66 0,15.84 -9.31,29.49 -22.77,35.81 -4.48,2.1 -9.42,3.38 -14.63,3.66 -0.7,0.04 -1.41,0.06 -2.12,0.06 -0.88,0 -1.76,-0.03 -2.62,-0.09 -1.22,-0.08 -2.41,-0.22 -3.59,-0.39 -1.4,-0.23 -2.78,-0.52 -4.13,-0.88 -1.02,-0.28 -2.01,-0.59 -2.98,-0.94 -3.52,-1.27 -6.82,-3.01 -9.8,-5.16 -0.65,-0.48 -1.3,-0.97 -1.92,-1.48 -0.66,-0.55 -1.27,-1.16 -1.9,-1.75 0.61,1.01 1.22,2 1.92,2.92 1.04,1.43 2.18,2.77 3.41,4.03 1.05,1.1 2.17,2.13 3.36,3.09 0.62,0.51 1.26,1 1.92,1.48 2.98,2.15 6.27,3.9 9.79,5.16 0.97,0.34 1.97,0.66 2.98,0.93 1.36,0.37 2.74,0.67 4.14,0.88 1.17,0.19 2.37,0.33 3.59,0.41 0.85,0.05 1.73,0.08 2.61,0.08 0.72,0 1.42,-0.01 2.13,-0.06 4.52,-0.24 8.84,-1.28 12.83,-2.92 14.4,-5.91 24.57,-20.02 24.57,-36.55z"/>
  <polygon class="fil1" points="759.12,688.85 758.53,734.45 763.57,724.37 783.5,684.55 734.47,621.87 706.88,586.61 704.34,583.34 "/>
  <path class="fil5" d="M746.88 723.04l-34.43 -18.83 -4.92 -108.65 39.35 127.48zm152.55 346.93c1.04,0.23 2.05,0.53 3.05,0.91 2.33,0.91 4.51,2.23 6.42,3.98 9.12,8.36 8.94,23.52 -0.18,34.44l-0.96 1.08 -1.24 1.29c-0.6,0.58 -1.21,1.13 -1.83,1.65 -0.75,0.62 -1.5,1.2 -2.28,1.73 -0.59,0.4 -1.19,0.77 -1.79,1.13 -2.16,1.27 -4.43,2.23 -6.73,2.87 -0.51,0.15 -1.03,0.27 -1.54,0.39 -0.96,0.21 -1.92,0.37 -2.88,0.46 -1.11,0.12 -2.21,0.16 -3.31,0.12 -0.92,-0.02 -1.86,-0.11 -2.76,-0.24 -0.87,-0.14 -1.72,-0.32 -2.54,-0.55 -2.68,-0.73 -5.19,-1.98 -7.4,-3.75l-1 -0.86c-7.61,-6.98 -8.74,-18.69 -3.61,-28.71 1.23,-2.41 2.81,-4.71 4.76,-6.83l0.27 -0.29c0.69,-0.74 1.4,-1.43 2.15,-2.08 0.86,-0.77 1.78,-1.48 2.71,-2.13 0.88,-0.61 1.78,-1.17 2.69,-1.67 1.01,-0.56 2.04,-1.05 3.07,-1.47 0.52,-0.22 1.04,-0.41 1.57,-0.59 2.09,-0.71 4.23,-1.15 6.35,-1.33 0.74,-0.06 1.49,-0.09 2.22,-0.08 1,0 1.99,0.07 2.96,0.2 0.62,0.09 1.22,0.19 1.83,0.33zm-356.55 -100.13l-70.9 -62.97 102.61 52.81 -31.71 10.16zm164.65 -258.05l39.94 17.75 31.94 86.12 14.82 39.97 3.92 10.56 76.08 205.16c-1.71,1.28 -3.32,2.72 -4.81,4.26l-200.95 -89.66 -10.3 -4.6 -29.13 -13 -44.52 -19.86 3.95 10.81 -28.22 -28.1 -97.77 -29.75 82.3 76.09 32.75 -13.67 41.82 18.66 31.62 14.11 10.28 4.59 199.24 88.9c-1.39,4.03 -2.15,8.34 -2.15,12.84 0,0.75 0.02,1.5 0.07,2.24 0.1,1.87 0.37,3.68 0.72,5.47l0.66 1.01c1.05,1.41 2.19,2.76 3.41,4.02 1.06,1.1 2.18,2.12 3.36,3.1 0.62,0.5 1.26,1 1.91,1.47 3,2.15 6.28,3.9 9.81,5.16 0.97,0.35 1.97,0.66 2.97,0.94 1.36,0.36 2.73,0.65 4.13,0.87 1.19,0.19 2.39,0.33 3.6,0.41 0.86,0.05 1.73,0.09 2.61,0.09 0.71,0 1.43,-0.03 2.13,-0.06 20.83,-1.11 37.4,-18.36 37.4,-39.48 0,-2.62 -0.29,-5.17 -0.78,-7.65 -0.41,-0.59 -0.77,-1.21 -1.21,-1.77 -0.72,-0.94 -1.49,-1.84 -2.3,-2.71 -2.28,-2.46 -4.88,-4.63 -7.73,-6.45 -0.71,-0.45 -1.43,-0.88 -2.17,-1.29 -1.49,-0.82 -3.04,-1.55 -4.63,-2.17 -1.46,-0.58 -2.95,-1.07 -4.48,-1.46 -1.63,-0.42 -3.3,-0.75 -5.01,-0.96 -1.42,-0.18 -2.87,-0.28 -4.34,-0.31l-0.6 0c-2.13,0 -4.21,0.17 -6.24,0.5 -0.67,0.1 -1.29,0.32 -1.94,0.46l-75.7 -204.1 -3.92 -10.57 -16.38 -44.16 -30.12 -81.2 -5.04 10.08 0.59 -45.6 -54.78 -105.51 0.1 4.18 1.23 49.46 1.86 74.81z"/>
  <polygon class="fil7" points="712.45,704.21 746.88,723.04 707.53,595.56 "/>
  <polygon class="fil1" points="560.25,931.2 588.47,959.3 584.52,948.49 571.66,913.29 462.48,901.45 "/>
  <polygon class="fil7" points="471.98,906.87 542.88,969.84 574.59,959.68 "/>
  <path class="fil7" d="M892.42 1069.52c-2.12,0.18 -4.26,0.62 -6.35,1.33 -0.53,0.18 -1.05,0.37 -1.57,0.59 -1.03,0.42 -2.06,0.91 -3.07,1.47 -0.91,0.5 -1.81,1.06 -2.69,1.67 -0.93,0.65 -1.85,1.36 -2.71,2.13 -0.75,0.65 -1.46,1.34 -2.15,2.08l-0.27 0.29c-1.95,2.12 -3.53,4.42 -4.76,6.83 -5.13,10.02 -4,21.73 3.61,28.71l1 0.86c2.21,1.77 4.72,3.02 7.4,3.75 0.82,0.23 1.67,0.41 2.54,0.55 0.9,0.13 1.84,0.22 2.76,0.24 1.1,0.04 2.2,0 3.31,-0.12 0.96,-0.09 1.92,-0.25 2.88,-0.46 0.51,-0.12 1.03,-0.24 1.54,-0.39 2.3,-0.64 4.57,-1.6 6.73,-2.87 0.6,-0.36 1.2,-0.73 1.79,-1.13 0.78,-0.53 1.53,-1.11 2.28,-1.73 0.62,-0.52 1.23,-1.07 1.83,-1.65l1.24 -1.29 0.96 -1.08c9.12,-10.92 9.3,-26.08 0.18,-34.44 -1.91,-1.75 -4.09,-3.07 -6.42,-3.98 -1,-0.38 -2.01,-0.68 -3.05,-0.91 -0.61,-0.14 -1.21,-0.24 -1.83,-0.33 -0.97,-0.13 -1.96,-0.2 -2.96,-0.2 -0.73,-0.01 -1.48,0.02 -2.22,0.08z"/>
  <path class="fil1" d="M859.13 1110.68c0.27,1.35 0.61,2.67 1,3.97 0.02,0.1 0.06,0.21 0.08,0.31 0.42,1.33 0.89,2.63 1.45,3.89 0.57,1.31 1.21,2.59 1.94,3.82 0.74,1.31 1.57,2.57 2.47,3.78 1.04,1.41 2.18,2.76 3.41,4.02 1.05,1.09 2.17,2.12 3.35,3.09 0.62,0.51 1.27,1 1.92,1.48 2.98,2.15 6.28,3.89 9.8,5.16 0.97,0.35 1.96,0.66 2.98,0.94 1.35,0.36 2.73,0.65 4.13,0.88 1.18,0.17 2.37,0.31 3.59,0.39 0.86,0.06 1.74,0.09 2.62,0.09 0.71,0 1.42,-0.02 2.12,-0.06 5.21,-0.28 10.15,-1.56 14.63,-3.66 13.46,-6.32 22.77,-19.97 22.77,-35.81 0,-4.43 -0.73,-8.68 -2.07,-12.66 -0.57,-1.69 -1.26,-3.33 -2.04,-4.9 -0.45,-0.91 -0.93,-1.8 -1.45,-2.66 -0.04,-0.07 -0.08,-0.13 -0.11,-0.18 -0.45,-0.74 -0.91,-1.45 -1.41,-2.15 0.02,0.05 0.03,0.09 0.03,0.14 0.49,2.48 0.78,5.03 0.78,7.65 0,21.12 -16.57,38.37 -37.4,39.48 -0.7,0.03 -1.42,0.06 -2.13,0.06 -0.88,0 -1.75,-0.04 -2.61,-0.09 -1.21,-0.08 -2.41,-0.22 -3.6,-0.41 -1.4,-0.22 -2.77,-0.51 -4.13,-0.87 -1,-0.28 -2,-0.59 -2.97,-0.94 -3.53,-1.26 -6.81,-3.01 -9.81,-5.16 -0.65,-0.47 -1.29,-0.97 -1.91,-1.47 -1.18,-0.98 -2.3,-2 -3.36,-3.1 -1.22,-1.26 -2.36,-2.61 -3.41,-4.02l-0.66 -1.01 0 0 0 0z"/>
  <path class="fil0" d="M896.93 1076.52c-0.94,-0.87 -2.07,-1.47 -3.32,-1.82 -0.53,-0.15 -1.08,-0.26 -1.64,-0.32l-1.01 -0.05c-0.53,0 -1.08,0.02 -1.64,0.09l-1.26 0.2c-1.2,0.25 -2.43,0.66 -3.65,1.22l-0.91 0.44c-0.62,0.32 -1.23,0.67 -1.84,1.06 -0.54,0.35 -1.08,0.73 -1.63,1.15 -0.56,0.44 -1.13,0.91 -1.67,1.41l-1.34 1.34 -0.18 0.19c-1.24,1.35 -2.29,2.79 -3.15,4.25 -3.59,6.11 -3.77,12.74 0,16.19l0.5 0.43c1.11,0.86 2.43,1.4 3.88,1.63l1.39 0.13c0.49,0.01 1.01,0 1.53,-0.05 0.61,-0.06 1.23,-0.16 1.87,-0.31 0.54,-0.11 1.09,-0.27 1.64,-0.46l0.88 -0.33c1.35,-0.53 2.69,-1.24 4,-2.12l1.07 -0.78 1.4 -1.15 1.14 -1.07 0.79 -0.83 0.61 -0.69c5.9,-6.9 7.07,-15.6 2.54,-19.75z"/>
 </g>
</svg>
