<?xml version="1.0" encoding="UTF-8"?>
<!DOCTYPE svg PUBLIC "-//W3C//DTD SVG 1.1//EN" "http://www.w3.org/Graphics/SVG/1.1/DTD/svg11.dtd">
<!-- Creator: CorelDRAW -->
<svg xmlns="http://www.w3.org/2000/svg" xml:space="preserve" width="15mm" height="13mm" version="1.1" style="shape-rendering:geometricPrecision; text-rendering:geometricPrecision; image-rendering:optimizeQuality; fill-rule:evenodd; clip-rule:evenodd"
viewBox="0 0 1500 1300"
 xmlns:xlink="http://www.w3.org/1999/xlink"
 xmlns:xodm="http://www.corel.com/coreldraw/odm/2003">
 <defs>
  <style type="text/css">
   <![CDATA[
    .str0 {stroke:#A45E4D;stroke-width:20;stroke-miterlimit:22.9256}
    .fil2 {fill:none}
    .fil0 {fill:#A45E4D}
    .fil1 {fill:#A45E4D;fill-rule:nonzero}
   ]]>
  </style>
 </defs>
 <g id="Camada_x0020_1">
  <metadata id="CorelCorpID_0Corel-Layer"/>
  <path class="fil0" d="M773.74 875.19c72.62,45.83 159.83,72.41 253.61,72.16 229.8,-0.62 378.84,-153.63 411.62,-363.08 -22.82,195.64 -156.55,341.16 -369.04,341.16 -98.82,0 -189.52,-32.96 -260.56,-87.92l-35.63 37.68zm-50.07 -128.29c-41.92,-61.24 -66.26,-134.32 -66.26,-212.78 0,-216.12 286.41,-490.39 616.92,-238.28l-41.3 20.98 39.84 31.72 143.62 101.01 16.88 -172.61 4.18 -55.54 -50 23.08c-83.85,-101.34 -214.03,-166.28 -360.2,-166.28 -253.02,0 -458.32,193.75 -458.13,434.58 0.08,107.86 41.26,206.41 109.43,282.29l45.02 -48.17z"/>
  <rect class="fil0" x="1022.07" y="224.23" width="21.15" height="55.35" rx="10.58" ry="10.58"/>
  <rect class="fil0" transform="matrix(0.0332751 0.0218293 -0.0218294 0.033275 1189.54 287.984)" width="318.88" height="834.54" rx="159.44" ry="159.44"/>
  <rect class="fil0" transform="matrix(0.0177575 0.0356149 -0.035615 0.0177574 1303.79 393.776)" width="318.88" height="834.54" rx="159.44" ry="159.44"/>
  <rect class="fil0" transform="matrix(-0.000288708 0.0397953 -0.0397953 -0.000288787 1355.5 546.329)" width="318.88" height="834.54" rx="159.44" ry="159.44"/>
  <rect class="fil0" transform="matrix(-0.0182724 0.0353535 -0.0353535 -0.0182724 1320.27 719.826)" width="318.88" height="834.54" rx="159.44" ry="159.44"/>
  <rect class="fil0" transform="matrix(-0.033619 0.0212959 -0.0212958 -0.033619 1205.2 844.518)" width="318.88" height="834.54" rx="159.44" ry="159.44"/>
  <rect class="fil0" transform="matrix(0.033619 0.0212959 0.0212958 -0.033619 847.979 836.909)" width="318.88" height="834.54" rx="159.44" ry="159.44"/>
  <rect class="fil0" transform="matrix(0.021523 0.033474 0.033474 -0.021523 739.157 710.95)" width="318.88" height="834.54" rx="159.44" ry="159.44"/>
  <rect class="fil0" transform="matrix(-0.000923556 0.0397856 0.0397857 0.000923474 709.518 544.977)" width="318.88" height="834.54" rx="159.44" ry="159.44"/>
  <rect class="fil0" transform="matrix(-0.0208869 0.0338746 0.0338747 0.0208868 758.265 379.61)" width="318.88" height="834.54" rx="159.44" ry="159.44"/>
  <rect class="fil0" transform="matrix(-0.0662848 0.00235678 -0.00235664 -0.0662848 1043.57 915.28)" width="318.88" height="834.54" rx="159.44" ry="159.44"/>
  <rect class="fil0" transform="matrix(-0.0332751 0.0218293 0.0218294 0.033275 885.656 281.06)" width="318.88" height="834.54" rx="159.44" ry="159.44"/>
  <g>
   <path class="fil1" d="M902.13 602.96l0 -57.34c-23.72,18.16 -39.69,27.24 -47.91,27.24 -3.93,0 -7.41,-1.57 -10.43,-4.68 -3.06,-3.11 -4.53,-6.75 -4.53,-10.86 0,-4.77 1.47,-8.26 4.44,-10.52 3.02,-2.2 8.28,-5.11 15.82,-8.64 11.33,-5.32 20.37,-10.9 27.12,-16.79 6.78,-5.87 12.76,-12.47 18.02,-19.74 5.21,-7.32 8.65,-11.76 10.23,-13.43 1.58,-1.68 4.58,-2.53 8.98,-2.53 4.93,0 8.95,1.9 11.9,5.73 3.02,3.82 4.5,9.08 4.5,15.83l0 131.32 -38.14 -35.59zm222.35 -81.45l-66.55 0 -7.99 45.32c13.25,-7.07 25.48,-10.6 36.72,-10.6 8.94,0 17.3,1.67 25.15,5.02 7.79,3.38 14.63,8.03 20.46,13.96 5.88,5.92 10.51,12.95 13.86,21.03 3.35,8.13 5.02,16.87 5.02,26.2 0,13.53 -3.01,25.82 -9.08,36.96 -6.07,11.09 -14.82,19.89 -26.25,26.43 -11.37,6.55 -24.57,9.8 -39.53,9.8 -16.69,0 -30.26,-3.06 -40.69,-9.23 -10.42,-6.17 -17.79,-13.24 -22.13,-21.23 -4.36,-7.93 -6.5,-14.91 -6.5,-20.89 0,-3.63 1.53,-7.11 4.54,-10.37 3.06,-3.25 6.83,-4.87 11.42,-4.87 7.84,0 13.67,4.49 17.5,13.57 3.73,8.32 8.8,14.78 15.16,19.42 6.35,4.63 13.43,6.93 21.27,6.93 7.17,0 13.48,-1.87 18.89,-5.6 5.44,-3.73 9.6,-8.89 12.57,-15.45 2.92,-6.5 4.39,-13.95 4.39,-22.27 0,-8.94 -1.57,-16.59 -4.77,-22.95 -3.16,-6.35 -7.42,-11.08 -12.72,-14.24 -5.31,-3.11 -11.29,-4.69 -17.79,-4.69 -8.03,0 -13.77,1 -17.26,2.96 -3.44,1.97 -8.41,5.36 -14.91,10.29 -6.46,4.87 -11.81,7.36 -16.02,7.36 -4.59,0 -8.66,-1.68 -12.19,-4.98 -3.54,-3.34 -5.31,-7.07 -5.31,-11.28 0,-0.47 0.48,-3.63 1.53,-9.51l11.77 -67.07c1.29,-8.03 3.73,-13.87 7.26,-17.5 3.59,-3.69 9.37,-5.5 17.4,-5.5l73.91 0c14.54,0 21.8,5.54 21.8,16.68 0,4.88 -1.77,8.8 -5.3,11.82 -3.54,3 -8.76,4.48 -15.63,4.48z"/>
  </g>
  <path class="fil1" d="M1154.76 546.92l0 -120.6 14.82 0 0 43.41c6.87,-8.07 15.55,-12.08 26.06,-12.08 6.42,0 12.01,1.26 16.79,3.82 4.74,2.55 8.14,6.06 10.18,10.56 2.06,4.48 3.06,11.03 3.06,19.56l0 55.33 -14.82 0 0 -55.27c0,-7.38 -1.6,-12.77 -4.77,-16.15 -3.2,-3.36 -7.69,-5.05 -13.53,-5.05 -4.36,0 -8.45,1.12 -12.3,3.4 -3.85,2.27 -6.57,5.36 -8.23,9.26 -1.63,3.88 -2.44,9.24 -2.44,16.09l0 47.72 -14.82 0z"/>
  <path class="fil2 str0" d="M771.09 912.66l289.12 280.99 -564.85 0m-148.74 0l-30.47 -0.18 0 -748.46 327.74 344.01"/>
  <path class="fil2 str0" d="M901.81 1039.71c-50.15,30.8 -65.11,85.07 -58.16,153.94"/>
  <path class="fil2 str0" d="M316.15 672.55c73.65,4.33 124.18,-18.67 155.97,-63.83"/>
  <path class="fil2 str0" d="M907.49 605.64l44.19 43.49c11.66,11.47 11.82,30.39 0.34,42.05l-448.8 456.05 -129.92 45.09 37.32 -124.16 454.82 -462.18c11.47,-11.66 30.39,-11.81 42.05,-0.34z"/>
  <path class="fil2 str0" d="M393.75 1124.26c32.65,-3.06 49.08,11.72 49.92,43.64"/>
  <path class="fil2 str0" d="M410.62 1068.16c27.6,15.94 82.82,-41.36 92.6,79.07"/>
  <line class="fil2 str0" x1="787.4" y1="685.28" x2="873.98" y2= "770.48" />
  <line class="fil2 str0" x1="821.92" y1="650.21" x2="866.59" y2= "692.5" />
  <rect class="fil2 str0" x="78.74" y="456.75" width="165.91" height="739.41" rx="36.22" ry="36.22"/>
  <line class="fil2 str0" x1="244.65" y1="577.5" x2="191.93" y2= "579.21" />
  <line class="fil2 str0" x1="244.32" y1="704.55" x2="191.6" y2= "706.26" />
  <line class="fil2 str0" x1="243.99" y1="831.6" x2="191.27" y2= "833.31" />
  <line class="fil2 str0" x1="243.66" y1="958.66" x2="190.94" y2= "960.36" />
  <line class="fil2 str0" x1="243.33" y1="1085.71" x2="190.61" y2= "1087.42" />
 </g>
</svg>
