<?xml version="1.0" encoding="UTF-8"?>
<!DOCTYPE svg PUBLIC "-//W3C//DTD SVG 1.1//EN" "http://www.w3.org/Graphics/SVG/1.1/DTD/svg11.dtd">
<!-- Creator: CorelDRAW -->
<svg xmlns="http://www.w3.org/2000/svg" xml:space="preserve" width="55mm" height="65mm" version="1.1" style="shape-rendering:geometricPrecision; text-rendering:geometricPrecision; image-rendering:optimizeQuality; fill-rule:evenodd; clip-rule:evenodd"
viewBox="0 0 5500 6500"
 xmlns:xlink="http://www.w3.org/1999/xlink"
 xmlns:xodm="http://www.corel.com/coreldraw/odm/2003">
 <defs>
  <style type="text/css">
   <![CDATA[
    .fil1 {fill:#505354;fill-rule:nonzero}
    .fil0 {fill:#394E5A;fill-rule:nonzero}
   ]]>
  </style>
 </defs>
 <g id="Camada_x0020_1">
  <metadata id="CorelCorpID_0Corel-Layer"/>
  <path class="fil0" d="M4903.87 2338.98c0,33.48 23.99,63.64 58.91,69.25 38.1,6.17 73.73,-19.79 80.08,-57.96l0 0c24.35,-147.99 34.93,-281.13 34.93,-400.93 0.35,-246.1 -45.86,-437.13 -119.59,-583.36 -54.68,-109.85 -124.89,-194.13 -198.97,-258.09 -111.83,-95.64 -232.48,-144.43 -328.08,-169.51 -96.31,-24.87 -168.28,-26.42 -186.97,-26.42 -1.06,0 -1.77,0 -2.12,0 -0.71,0 -1.41,0 -1.77,0 -16.22,0 -75.14,1.37 -155.57,19.08 -60.33,13.13 -133,36.45 -208.14,75.22 -112.54,58.17 -232.13,154.23 -321.73,306.7 -89.61,152.4 -148.52,359.45 -148.52,636.38 0,119.8 11.29,252.94 35.28,400.93 5.99,38.17 42.33,64.13 80.43,57.96 34.57,-5.61 58.91,-35.77 58.91,-69.25 0,-3.56 -0.35,-7.55 -0.7,-11.11 -22.93,-141.54 -33.52,-267.37 -33.52,-378.53 0.36,-228.78 43.04,-396.52 104.78,-520.56 46.92,-93.24 104.07,-162 165.1,-214.35 91.37,-78.1 191.2,-119.17 272.34,-140.23 80.44,-20.88 141.47,-22.19 151.34,-22.19l1.06 0 0 0.43 1.77 0c0,0 0,-0.43 0.35,-0.43l0 0 0.71 0c8.81,0 58.2,0.88 125.23,15.95 50.8,11.11 111.48,30.44 173.92,62.62 93.84,48.96 190.15,126.01 265.29,253.15 75.14,127.99 128.76,307.97 129.12,565.61 0,111.16 -10.23,236.99 -33.16,378.53 -0.71,3.56 -0.71,7.55 -0.71,11.11z"/>
  <path class="fil0" d="M1614.92 1088.38c-16.58,-35.06 -58.91,-49.24 -93.84,-31.96 -34.57,17.11 -48.68,59.06 -31.39,93.84l559.15 1133.05 -1758.25 0 0 -1930.72 2877.26 0 0 1930.72 -962.38 0 -590.55 -1194.93zm3196.52 3418.95c0,38.77 31.4,70.13 69.85,70.13 39.16,0 70.2,-31.36 70.2,-70.13l0 -139.81c41.99,24.38 90.32,38.56 142.17,38.56 77.62,0 148.52,-31.68 199.32,-82.72 50.8,-50.8 82.91,-121.82 82.2,-199.5l0 -0.39 0 0 0 -699.03c0,-134.41 -30.34,-262.46 -85.37,-378.53 -82.9,-173.95 -220.13,-320.39 -391.94,-423.12 -171.09,-102.94 -377.12,-162.91 -598.31,-162.91l-1782.94 0c-72.32,0 -138.29,27.8 -188.38,72.56l-53.62 -108.72 963.43 0c18.35,0 36.34,-7.52 49.74,-20.6 13.06,-13.09 20.47,-31.54 20.47,-49.75l0 -2070.91c0,-18.2 -7.41,-36.4 -20.47,-49.28 -13.4,-13.3 -31.39,-20.85 -49.74,-20.85l-3017.66 0c-18.34,0 -36.33,7.55 -49.74,20.85 -13.05,12.88 -20.46,31.08 -20.46,49.28l0 2070.91c0,18.21 7.41,36.66 20.46,49.75 13.41,13.08 31.4,20.6 49.74,20.6l1897.59 0 74.79 150.88 -2012.95 0c-38.45,0 -70.2,31.54 -70.2,70.17 0,38.77 31.75,70.1 70.2,70.1l2055.99 0c-0.7,9.1 -1.06,18.2 -1.06,27.05 0,77.68 31.75,148.88 82.55,199.5 24.34,24.16 53.27,44.38 85.38,58.35l36.68 74.33c17.29,34.85 59.27,49.03 93.84,31.96 31.05,-15.31 45.51,-50.16 36.69,-81.88l1019.53 0 0 1483.15c0,38.77 31.4,70.13 69.85,70.13 39.16,0 70.56,-31.36 70.56,-70.13l0 0 0 -16.41 0 -1521.56 0.7 -6.42c2.47,-20.18 -3.17,-39.97 -16.93,-55.25 -13.06,-15.31 -32.11,-23.99 -52.57,-23.99l-1144.41 0c-4.94,0 -10.23,-0.21 -15.17,-0.63l-105.83 -214.6c6,-9.52 12.7,-18.87 21.17,-26.81 25.4,-25.57 60.67,-41.27 99.83,-41.27l1782.94 0c261.06,0 495.65,94.05 664.63,244.05 84.32,75.04 152.05,163.76 198.97,262.04 46.57,97.9 71.97,205.04 71.97,317.96l0 303.6 0 395.43 0 0.39c0,39.51 -15.52,74.37 -41.28,100.54 -26.1,25.51 -60.67,41.49 -100.19,41.49 -39.51,0 -74.43,-15.98 -100.54,-41.49 -25.75,-26.17 -41.63,-61.03 -41.63,-100.54l0 -0.39 0 -91.44 0 -303.99c0,-39.3 -31.04,-70.34 -70.2,-70.34 -38.45,0 -69.85,31.04 -69.85,70.34l0 395.82c0,0 0,0 0,0.42l0 114.3 0 268.75z"/>
  <path class="fil0" d="M4363.41 1996.61c58.21,25.96 127.71,46.81 210.97,60.54 -29.29,33.97 -62.8,63.46 -100.55,86.99 -67.38,42.37 -146.75,67.03 -232.48,67.03 -113.24,0 -215.54,-42.83 -293.51,-113.14 -63.5,-57.75 -110.06,-134.05 -131.23,-220.17 79.02,-25.47 146.75,-59.02 203.55,-97.4 28.58,-18.87 53.98,-39.51 76.91,-60.36 4.58,12.67 9.87,26.43 15.87,40.15 14.82,32.38 34.93,67.06 63.5,101 42.69,50.59 103.37,98.28 186.97,135.36zm-51.5 -731.63c0,-38.77 -31.75,-70.34 -70.56,-70.34 -38.45,0 -69.85,31.33 -69.85,69.96l0 0 0 1.3c0,7.55 -2.11,44.84 -15.52,95.43 -13.05,50.55 -37.39,114.02 -82.2,176.17l0 0c-24.34,33.27 -54.32,66.12 -92.07,96.95 -12.35,10.19 -25.75,20.18 -40.22,29.98 -57.15,38.56 -129.11,72.32 -222.25,95.82 -4.58,0.92 -8.82,2.47 -12.7,4.44 -1.76,0.67 -2.82,1.56 -4.23,2.47 -2.47,1.31 -4.94,2.68 -7.06,4.2 -1.41,1.09 -2.82,2.68 -4.58,3.78 -1.41,1.55 -3.18,3.1 -4.94,4.9 -1.41,1.3 -2.82,3.1 -3.88,4.66 -1.41,1.55 -2.82,3.52 -3.88,5.53 -1.41,1.56 -2.47,3.32 -3.18,5.12 -1.41,1.76 -2.11,3.99 -3.17,6.17 -0.71,1.8 -1.41,3.81 -1.77,5.79 -0.7,2.22 -1.41,4.41 -1.76,6.91 -0.35,1.73 -1.06,3.99 -1.06,5.75 -0.35,2.65 -0.35,4.84 -0.35,7.09 0,2.23 0,4.24 0,6.46 0,0.64 0,1.09 0,1.98 15.52,144.92 85.02,274.03 187.32,366.78 74.44,67.03 166.87,115.39 268.82,136.7 38.81,8.18 78.32,12.38 118.53,12.38 40.57,0 80.08,-4.41 118.54,-12.38 68.08,-14.22 131.94,-40.18 188.73,-75.88 88.9,-55.95 161.57,-135.4 209.2,-229.45 10.58,-21.06 9.88,-45.51 -1.41,-65.93 -11.64,-20.18 -32.46,-33.94 -55.74,-35.67 -140.41,-11.78 -238.13,-41.27 -305.86,-75.92 -50.8,-25.96 -85.37,-54.99 -110.07,-84.1 -36.68,-43.46 -52.91,-87.88 -63.14,-126.5 -4.94,-19.09 -8.12,-36.8 -11.64,-53.45 -0.36,-1.31 -1.06,-2.65 -1.06,-4.41 47.98,-75.04 73.02,-148.7 86.78,-206.62 15.52,-65.69 16.23,-111.16 16.23,-116.07z"/>
  <path class="fil0" d="M2002.63 3436.65c80.08,-80.26 191.2,-130.04 313.61,-130.04 123.12,0 233.19,49.78 313.98,130.04 80.78,80.82 130.17,191.06 130.17,313.97 0,122.94 -49.39,233.43 -130.17,314.01 -80.79,80.33 -190.86,129.79 -313.98,129.79 -122.41,0 -233.53,-49.46 -313.61,-129.79 -80.79,-80.58 -130.18,-191.07 -130.18,-314.01 0,-122.91 49.39,-233.15 130.18,-313.97zm313.61 897.99c161.22,0.29 307.63,-65.19 413.11,-170.81 105.83,-105.62 171.09,-252.1 171.09,-413.21 0,-161.08 -65.26,-307.69 -171.09,-413.14 -105.48,-105.62 -251.89,-171.06 -413.11,-171.06 -160.86,0 -307.62,65.44 -412.75,171.06 -105.83,105.45 -171.09,252.06 -171.09,413.14 0,161.11 65.26,307.59 171.09,413.21 105.13,105.62 251.89,171.1 412.75,170.81z"/>
  <path class="fil0" d="M1367.98 4857.25l-27.87 -160.66c-1.41,-9.31 -5.29,-18.69 -10.23,-26.38l-837.5 -1284.54c-23.28,-36.19 -34.57,-76.55 -34.57,-116.52 0,-35.07 8.82,-69.67 25.05,-100.75 16.58,-30.62 40.57,-57.89 72.32,-78.53 35.98,-23.53 76.2,-34.64 116.06,-34.64 35.28,0 69.85,8.64 100.9,25.08 31.04,16.19 58.2,40.14 78.67,71.89 92.78,142.67 185.91,285.82 280.1,428.24 101.95,153.78 200.73,311.08 302.68,467.29 43.04,65.93 83.61,137.41 130.18,207.54 46.57,70.27 99.13,139.73 167.92,201.47 57.86,51.89 122.77,90.52 190.85,118.04 68.8,27.27 140.41,43.46 213.79,51.65 67.38,7.58 131.94,8.22 194.38,9.8 62.44,1.59 122.41,3.32 179.56,11.5 102.66,15.39 201.09,46.64 291.04,95.64 84.67,45.76 165.46,104.53 233.9,173.78 68.43,69.25 124.17,147.99 160.16,234.53 19.05,46.18 36.69,100.05 49.03,154.2 12,53.97 19.05,108.93 19.05,156.88l0 707.42c0,1.73 0.36,3.53 0.71,5.33l-473.78 0.39c0,-1.7 0.35,-3.99 0.35,-5.72l0 -438.89c0,-38.38 -31.4,-69.95 -69.85,-69.95 -38.8,0 -70.55,31.57 -70.55,69.95l0 438.89c0,2.01 0.7,4.02 1.05,6.21l-1283.05 1.31c0.35,-2.61 0.71,-4.91 0.71,-7.52l0 -707.42 0 -593.3c0,-4.27 -0.36,-7.98 -1.06,-12.21zm-467.08 1391c0,39.27 31.75,70.56 70.56,70.56l2689.57 -3.49c38.81,0 70.56,-31.3 70.56,-70.17 -0.35,-38.77 -31.75,-70.06 -70.56,-70.06l-257.52 0c0,-1.8 0.35,-3.18 0.35,-4.91l0 0 0 -707.42c0,-61.67 -8.82,-125.59 -22.58,-187.96 -14.46,-62.06 -33.87,-123.12 -56.44,-177.27 -44.1,-105.34 -110.78,-199.01 -189.8,-279.12 -79.02,-80.15 -171.1,-146.69 -266.7,-198.58 -105.83,-57.04 -220.13,-93.42 -337.61,-110.74 -67.73,-9.56 -133.35,-11.78 -196.49,-13.37 -63.5,-1.3 -124.53,-2.4 -182.39,-8.82 -63.15,-6.66 -122.41,-20.67 -176.74,-42.65 -54.68,-21.69 -104.78,-51.86 -149.93,-92.25 -55.74,-49.74 -101.25,-108.73 -144.29,-173.95 -43.04,-65.27 -83.61,-136.03 -130.17,-207.08 -100.54,-154.59 -199.68,-312.18 -302.69,-467.96 -93.84,-141.54 -186.26,-284.45 -279.4,-427.15 -34.22,-51.89 -79.72,-92.53 -130.88,-119.59 -51.15,-27.3 -108.3,-41.27 -166.51,-41.27 -65.97,0 -133.35,18.41 -192.97,57.46 -51.86,33.52 -92.07,79.24 -119.24,130.5 -27.16,51.47 -41.27,108.26 -41.27,166.19 -0.35,66.36 18.7,133.6 57.5,193.25l829.03 1272.15 24.69 140.9 0 587.31 0 707.42c0,2.61 0.36,5.33 0.36,7.52l-258.24 0.49c-38.45,0 -70.2,31.68 -70.2,70.06z"/>
  <path class="fil1" d="M662.07 846.27l396.87 0c38.81,0 70.21,-31.29 70.21,-69.85 0,-38.87 -31.4,-70.34 -70.21,-70.34l-396.87 0c-39.16,0 -70.2,31.47 -70.2,70.34 0,38.56 31.04,69.85 70.2,69.85z"/>
  <path class="fil1" d="M1330.58 1134.53l-668.51 0c-39.16,0 -70.2,31.53 -70.2,70.09 0,38.88 31.04,70.38 70.2,70.38l668.51 0c38.81,0 70.21,-31.5 70.21,-70.38 0,-38.56 -31.4,-70.09 -70.21,-70.09z"/>
  <path class="fil1" d="M1330.58 1590.28l-668.51 0c-39.16,0 -70.2,31.57 -70.2,70.13 0,38.84 31.04,70.35 70.2,70.35l668.51 0c38.81,0 70.21,-31.51 70.21,-70.35 0,-38.56 -31.4,-70.13 -70.21,-70.13z"/>
 </g>
</svg>
